<svg width="24" height="24" viewBox="0 0 24 24" fill="currentColor" xmlns="http://www.w3.org/2000/svg">
<path d="M10.293 5.29289C10.6835 4.90237 11.3165 4.90237 11.707 5.29289C12.0976 5.68342 12.0976 6.31643 11.707 6.70696L7.41406 10.9999H19C19.5523 10.9999 20 11.4476 20 11.9999C20 12.5522 19.5523 12.9999 19 12.9999H7.41406L11.707 17.2929L11.7754 17.3691C12.0957 17.7618 12.0731 18.3408 11.707 18.707C11.3409 19.0731 10.7619 19.0957 10.3691 18.7753L10.293 18.707L4.29297 12.707C3.90244 12.3164 3.90244 11.6834 4.29297 11.2929L10.293 5.29289Z" fill="currentColor"/>
</svg>
