<svg width="24" height="24" viewBox="0 0 24 24" fill="currentColor" xmlns="http://www.w3.org/2000/svg">
<path fill-rule="evenodd" clip-rule="evenodd" d="M12 21C13.1819 21 14.3522 20.7672 15.4442 20.3149C16.5361 19.8626 17.5282 19.1997 18.364 18.364C19.1997 17.5282 19.8626 16.5361 20.3149 15.4442C20.7672 14.3522 21 13.1819 21 12C21 10.8181 20.7672 9.64778 20.3149 8.55585C19.8626 7.46392 19.1997 6.47177 18.364 5.63604C17.5282 4.80031 16.5361 4.13738 15.4442 3.68508C14.3522 3.23279 13.1819 3 12 3C9.61305 3 7.32387 3.94821 5.63604 5.63604C3.94821 7.32387 3 9.61305 3 12C3 14.3869 3.94821 16.6761 5.63604 18.364C7.32387 20.0518 9.61305 21 12 21ZM11.293 8.293C11.4806 8.10549 11.7351 8.0002 12.0004 8.0003C12.2656 8.00039 12.52 8.10586 12.7075 8.2935C12.895 8.48114 13.0003 8.73558 13.0002 9.00085C13.0001 9.26612 12.8946 9.52049 12.707 9.708L11.414 11H15C15.2652 11 15.5196 11.1054 15.7071 11.2929C15.8946 11.4804 16 11.7348 16 12C16 12.2652 15.8946 12.5196 15.7071 12.7071C15.5196 12.8946 15.2652 13 15 13H11.415L12.707 14.293C12.8892 14.4816 12.99 14.7342 12.9877 14.9964C12.9854 15.2586 12.8802 15.5094 12.6948 15.6948C12.5094 15.8802 12.2586 15.9854 11.9964 15.9877C11.7342 15.99 11.4816 15.8892 11.293 15.707L8.293 12.707C8.20002 12.6141 8.12626 12.5038 8.07594 12.3824C8.02562 12.261 7.99971 12.1309 7.99971 11.9995C7.99971 11.8681 8.02562 11.738 8.07594 11.6166C8.12626 11.4952 8.20002 11.3849 8.293 11.292L11.293 8.292V8.293Z" fill="currentColor"/>
</svg>
