<svg width="24" height="24" viewBox="0 0 24 24" fill="currentColor" xmlns="http://www.w3.org/2000/svg">
<path d="M18 9C18 5.68629 15.3137 3 12 3C8.68629 3 6 5.68629 6 9C6 12.3137 8.68629 15 12 15C15.3137 15 18 12.3137 18 9ZM20 9C20 13.4183 16.4183 17 12 17C7.58172 17 4 13.4183 4 9C4 4.58172 7.58172 1 12 1C16.4183 1 20 4.58172 20 9Z" fill="currentColor"/>
<path d="M6 14C6 13.4477 6.44772 13 7 13C7.55228 13 8 13.4477 8 14V20.2334L10.9717 18.4512C11.2823 18.2651 11.6379 18.167 12 18.167C12.3621 18.167 12.7177 18.2651 13.0283 18.4512L16 20.2334V14C16 13.4477 16.4477 13 17 13C17.5523 13 18 13.4477 18 14V20.2344L17.9951 20.3672C17.9745 20.6747 17.8835 20.974 17.7275 21.2412C17.5493 21.5466 17.2931 21.7994 16.9854 21.9736C16.6776 22.1478 16.3291 22.2377 15.9756 22.2334C15.6219 22.229 15.2751 22.131 14.9717 21.9492V21.9482L12 20.167L9.02832 21.9482V21.9492C8.72493 22.131 8.37808 22.229 8.02441 22.2334C7.67087 22.2377 7.32235 22.1478 7.01465 21.9736C6.70691 21.7994 6.4507 21.5466 6.27246 21.2412C6.09423 20.9358 6.00028 20.588 6 20.2344V14Z" fill="currentColor"/>
</svg>
