<svg width="24" height="24" viewBox="0 0 24 24" fill="currentColor" xmlns="http://www.w3.org/2000/svg">
<path d="M18 9C18 5.68629 15.3137 3 12 3C8.68629 3 6 5.68629 6 9C6 12.3137 8.68629 15 12 15C15.3137 15 18 12.3137 18 9ZM20 9C20 13.4183 16.4183 17 12 17C7.58172 17 4 13.4183 4 9C4 4.58172 7.58172 1 12 1C16.4183 1 20 4.58172 20 9Z" fill="currentColor"/>
<path d="M7 20.234V14C7.667 14.667 9.6 16 12 16C14.4 16 16.333 14.667 17 14V20.234C16.9999 20.4108 16.9528 20.5845 16.8637 20.7372C16.7746 20.89 16.6465 21.0163 16.4926 21.1035C16.3387 21.1906 16.1645 21.2353 15.9876 21.2331C15.8108 21.2309 15.6377 21.1819 15.486 21.091L12.514 19.309C12.3587 19.2159 12.181 19.1668 12 19.1668C11.819 19.1668 11.6413 19.2159 11.486 19.309L8.514 21.09C8.36238 21.1809 8.18938 21.2299 8.01263 21.2321C7.83588 21.2344 7.6617 21.1897 7.50783 21.1027C7.35396 21.0157 7.22589 20.8895 7.13669 20.7369C7.04748 20.5843 7.00032 20.4108 7 20.234Z" fill="currentColor"/>
<path d="M16.293 13.2929C16.579 13.0069 17.0091 12.9214 17.3828 13.0761C17.7564 13.231 18 13.5956 18 14V20.2343L17.9951 20.3672C17.9745 20.6747 17.8835 20.974 17.7275 21.2412C17.5493 21.5466 17.2931 21.7994 16.9854 21.9736C16.6776 22.1478 16.3291 22.2377 15.9756 22.2334C15.6219 22.229 15.2751 22.131 14.9717 21.9492V21.9482L12 20.167L9.02832 21.9482C8.72511 22.1299 8.37885 22.2279 8.02539 22.2324C7.67195 22.2369 7.32332 22.1475 7.01562 21.9736C6.70788 21.7996 6.45185 21.5464 6.27344 21.2412C6.09511 20.936 6.00063 20.5888 6 20.2353V14C6 13.5956 6.24359 13.231 6.61719 13.0761C6.99086 12.9214 7.42103 13.0069 7.70703 13.2929C8.24681 13.8327 9.93981 15 12 15C14.0602 15 15.7532 13.8327 16.293 13.2929ZM16 15.9365C14.9548 16.5065 13.5708 17 12 17C10.4292 17 9.04518 16.5065 8 15.9365V20.2324L10.9717 18.4511C11.2823 18.265 11.6379 18.167 12 18.167C12.3621 18.167 12.7177 18.265 13.0283 18.4511L16 20.2334V15.9365Z" fill="currentColor"/>
</svg>
