<svg width="24" height="24" viewBox="0 0 24 24" fill="currentColor" xmlns="http://www.w3.org/2000/svg">
<path d="M6 11C6 6.2 10 5 12 5C16.8 5 18 9 18 11V15L20 17H4L6 15V11Z" fill="currentColor"/>
<path d="M9.99997 18C9.99997 18.34 10.1098 18.8725 10.4111 19.291C10.6757 19.6585 11.1259 20 12 20C12.874 20 13.3242 19.6585 13.5888 19.291C13.8902 18.8725 14 18.34 14 18H9.99997ZM17 11C17 10.16 16.7396 8.87748 15.9883 7.83398C15.2736 6.84161 14.0738 6 12 6C11.16 6 9.87745 6.2604 8.83396 7.01172C7.84158 7.72635 6.99997 8.92613 6.99997 11V15C6.99997 15.2652 6.89454 15.5195 6.707 15.707L6.41403 16H17.5859L17.2929 15.707C17.1054 15.5195 17 15.2652 17 15V11ZM19 14.5859L20.707 16.293C20.993 16.579 21.0786 17.0091 20.9238 17.3828C20.769 17.7564 20.4044 18 20 18H16C16 18.6599 15.8103 19.6276 15.2119 20.459C14.5765 21.3415 13.5259 22 12 22C10.4741 22 9.42345 21.3415 8.78806 20.459C8.1896 19.6276 7.99997 18.6599 7.99997 18H3.99997C3.59556 18 3.23095 17.7564 3.07614 17.3828C2.92136 17.0091 3.00694 16.579 3.29294 16.293L4.99997 14.5859V11C4.99997 8.27408 6.15849 6.47407 7.66599 5.38867C8.74499 4.61182 9.9672 4.22403 11 4.0752V3C11 2.44772 11.4477 2 12 2C12.5523 2 13 2.44772 13 3V4.05469C15.1743 4.30132 16.6646 5.35113 17.6113 6.66602C18.6599 8.1225 19 9.84001 19 11V14.5859Z" fill="currentColor"/>
</svg>
