<svg width="24" height="24" viewBox="0 0 24 24" fill="currentColor" xmlns="http://www.w3.org/2000/svg">
<path d="M10 18C10 18.34 10.1098 18.8725 10.4111 19.291C10.6757 19.6585 11.1259 20 12 20C12.8741 20 13.3243 19.6585 13.5889 19.291C13.8902 18.8725 14 18.34 14 18H10ZM17 11C17 10.16 16.7396 8.87748 15.9883 7.83398C15.2737 6.84161 14.0739 6 12 6C11.16 6 9.87748 6.2604 8.83399 7.01172C7.84161 7.72635 7 8.92613 7 11V15C7 15.2652 6.89457 15.5195 6.70703 15.707L6.41406 16H17.5859L17.293 15.707C17.1054 15.5195 17 15.2652 17 15V11ZM19 14.5859L20.707 16.293C20.993 16.579 21.0786 17.0091 20.9238 17.3828C20.769 17.7564 20.4044 18 20 18H16C16 18.6599 15.8104 19.6276 15.2119 20.459C14.5765 21.3415 13.5259 22 12 22C10.4741 22 9.42349 21.3415 8.78809 20.459C8.18963 19.6276 8 18.6599 8 18H4C3.59559 18 3.23099 17.7564 3.07617 17.3828C2.92139 17.0091 3.00697 16.579 3.29297 16.293L5 14.5859V11C5 8.27408 6.15852 6.47407 7.66602 5.38867C8.74502 4.61182 9.96723 4.22403 11 4.0752V3C11 2.44772 11.4477 2 12 2C12.5523 2 13 2.44772 13 3V4.05469C15.1743 4.30132 16.6646 5.35113 17.6113 6.66602C18.66 8.1225 19 9.84001 19 11V14.5859Z" fill="currentColor"/>
</svg>
