<svg width="24" height="24" viewBox="0 0 24 24" fill="currentColor" xmlns="http://www.w3.org/2000/svg">
<path d="M18 5C18 4.73478 17.8946 4.48051 17.707 4.29297C17.5195 4.10543 17.2652 4 17 4H7C6.73478 4 6.4805 4.10543 6.29297 4.29297C6.10543 4.4805 6 4.73478 6 5V19.2764L10.5117 16.6982C10.9649 16.4394 11.4781 16.3037 12 16.3037C12.5219 16.3037 13.0351 16.4394 13.4883 16.6982V16.6992L18 19.2773V5ZM20 20.1367L19.9873 20.332C19.9621 20.5264 19.899 20.7147 19.8008 20.8857C19.6699 21.1137 19.4812 21.3034 19.2539 21.4355C19.0267 21.5677 18.7687 21.6376 18.5059 21.6387C18.3087 21.6394 18.114 21.6014 17.9326 21.5273L17.7559 21.4414L12.4961 18.4355C12.345 18.3493 12.174 18.3037 12 18.3037C11.826 18.3037 11.655 18.3493 11.5039 18.4355L6.24414 21.4404C6.01611 21.5707 5.75773 21.6385 5.49512 21.6377C5.23244 21.6368 4.97427 21.5674 4.74707 21.4355C4.51987 21.3037 4.33132 21.1143 4.2002 20.8867C4.06912 20.6592 4.00015 20.4012 4 20.1387V5C4 4.20435 4.3163 3.44152 4.87891 2.87891C5.44152 2.3163 6.20435 2 7 2H17C17.7956 2 18.5585 2.3163 19.1211 2.87891C19.6837 3.44151 20 4.20435 20 5V20.1367Z" fill="currentColor"/>
</svg>
