<svg width="24" height="24" viewBox="0 0 24 24" fill="currentColor" xmlns="http://www.w3.org/2000/svg">
<path d="M4 7V9H20V7C20 6.46957 19.7893 5.96086 19.4142 5.58579C19.0391 5.21071 18.5304 5 18 5H6C5.46957 5 4.96086 5.21071 4.58579 5.58579C4.21071 5.96086 4 6.46957 4 7Z" fill="currentColor"/>
<path d="M19 10H5V19L5.00488 19.0986C5.02757 19.3276 5.12883 19.5429 5.29297 19.707C5.48051 19.8946 5.73478 20 6 20H18C18.2652 20 18.5195 19.8946 18.707 19.707C18.8946 19.5195 19 19.2652 19 19V10ZM19 7C19 6.73478 18.8946 6.48051 18.707 6.29297C18.5429 6.12883 18.3276 6.02757 18.0986 6.00488L18 6H6C5.73478 6 5.4805 6.10543 5.29297 6.29297C5.10543 6.4805 5 6.73478 5 7V8H19V7ZM21 9C21 9.08647 20.9874 9.16997 20.9668 9.25C20.9874 9.33003 21 9.41353 21 9.5V19C21 19.7957 20.6837 20.5585 20.1211 21.1211C19.5585 21.6837 18.7957 22 18 22H6C5.20435 22 4.44151 21.6837 3.87891 21.1211C3.3163 20.5585 3 19.7957 3 19V9.5C3 9.41353 3.01257 9.33003 3.0332 9.25C3.01257 9.16997 3 9.08647 3 9V7C3 6.20435 3.3163 5.44152 3.87891 4.87891C4.44152 4.3163 5.20435 4 6 4H7V3C7 2.44772 7.44772 2 8 2C8.55228 2 9 2.44772 9 3V4H15V3C15 2.44772 15.4477 2 16 2C16.5523 2 17 2.44772 17 3V4H18C18.7956 4 19.5585 4.3163 20.1211 4.87891C20.6837 5.44151 21 6.20435 21 7V9Z" fill="currentColor"/>
</svg>
