<svg width="24" height="24" viewBox="0 0 24 24" fill="currentColor" xmlns="http://www.w3.org/2000/svg">
<path d="M20 9C20 8.73478 19.8946 8.48051 19.707 8.29297C19.5429 8.12883 19.3276 8.02757 19.0986 8.00488L19 8H18.0703C17.5767 8.00007 17.0906 7.87824 16.6553 7.64551C16.2199 7.41264 15.8483 7.07576 15.5742 6.66504L15.5732 6.66406L14.7617 5.44434C14.6705 5.30781 14.5471 5.19566 14.4023 5.11816C14.2572 5.04054 14.0943 4.99998 13.9297 5H10.0703C9.90572 4.99998 9.74279 5.04054 9.59766 5.11816C9.45265 5.19579 9.32957 5.30849 9.23828 5.44531L9.2373 5.44434L8.42676 6.66406L8.42578 6.66504C8.15174 7.07576 7.78012 7.41264 7.34473 7.64551C6.96376 7.84919 6.54401 7.96774 6.11426 7.99414L5.92969 8H5C4.73478 8 4.4805 8.10543 4.29297 8.29297C4.10543 8.4805 4 8.73478 4 9V18C4 18.2652 4.10543 18.5195 4.29297 18.707C4.48051 18.8946 4.73478 19 5 19H19C19.2652 19 19.5195 18.8946 19.707 18.707C19.8946 18.5195 20 18.2652 20 18V9ZM22 18C22 18.7957 21.6837 19.5585 21.1211 20.1211C20.5585 20.6837 19.7957 21 19 21H5C4.20435 21 3.44151 20.6837 2.87891 20.1211C2.3163 19.5585 2 18.7956 2 18V9C2 8.20435 2.3163 7.44152 2.87891 6.87891C3.44152 6.3163 4.20435 6 5 6H5.92969C6.09428 6.00002 6.25721 5.95946 6.40234 5.88184C6.54735 5.80421 6.67043 5.69151 6.76172 5.55469L7.57422 4.33496C7.84826 3.92424 8.21988 3.58736 8.65527 3.35449C9.09058 3.12176 9.57669 2.99993 10.0703 3H13.9297C14.4233 2.99993 14.9094 3.12176 15.3447 3.35449C15.7801 3.58736 16.1517 3.92424 16.4258 4.33496L16.4268 4.33594L17.2373 5.55469C17.3286 5.69151 17.4527 5.80421 17.5977 5.88184C17.7428 5.95946 17.9057 6.00002 18.0703 6H19C19.7957 6 20.5585 6.3163 21.1211 6.87891C21.6837 7.44151 22 8.20435 22 9V18Z" fill="currentColor"/>
<path d="M14 13C14 11.8954 13.1046 11 12 11C10.8954 11 10 11.8954 10 13C10 14.1046 10.8954 15 12 15C13.1046 15 14 14.1046 14 13ZM16 13C16 15.2091 14.2091 17 12 17C9.79086 17 8 15.2091 8 13C8 10.7909 9.79086 9 12 9C14.2091 9 16 10.7909 16 13Z" fill="currentColor"/>
</svg>
