<svg width="24" height="24" viewBox="0 0 24 24" fill="currentColor" xmlns="http://www.w3.org/2000/svg">
<path d="M18 22V20H16C15.4477 19.9999 15 19.5522 15 19C15 18.4477 15.4477 18 16 17.9999H18V15.9999C18 15.4477 18.4477 15 19 14.9999C19.5523 14.9999 20 15.4477 20 15.9999V17.9999H22C22.5523 17.9999 23 18.4477 23 19C23 19.5522 22.5523 20 22 20H20V22C20 22.5522 19.5523 23 19 23C18.4477 22.9999 18 22.5522 18 22ZM11 10.7636V6.99995C11 6.44767 11.4477 5.99995 12 5.99995C12.5523 5.99995 13 6.44767 13 6.99995V10.7636C13 10.9494 13.0517 11.132 13.1494 11.29C13.247 11.4478 13.3868 11.5752 13.5527 11.6582L16.4473 13.1054L16.5361 13.1562C16.9643 13.4275 17.1261 13.9841 16.8945 14.4472C16.663 14.9103 16.1204 15.1152 15.6465 14.9355L15.5527 14.8945L12.6592 13.4472C12.1608 13.1982 11.7413 12.8156 11.4482 12.3417C11.1552 11.8678 11 11.3209 11 10.7636ZM20 11.9999C20 10.4177 19.5304 8.87121 18.6514 7.55561C17.7724 6.24009 16.5232 5.21483 15.0615 4.60932C13.5998 4.00385 11.9912 3.84465 10.4394 4.15327C8.8876 4.46195 7.46159 5.2239 6.34277 6.34272C5.22395 7.46154 4.462 8.88755 4.15332 10.4394C3.8447 11.9912 4.0039 13.5997 4.60937 15.0615C5.21488 16.5232 6.24014 17.7723 7.55566 18.6513C8.87125 19.5304 10.4177 20 12 20C12.5523 20 13 20.4477 13 21C13 21.5522 12.5523 22 12 22C10.0222 22 8.08882 21.4132 6.44433 20.3144C4.79991 19.2156 3.51761 17.6543 2.76074 15.8271C2.00386 13.9998 1.80653 11.9886 2.19238 10.0488C2.57827 8.10909 3.53025 6.32711 4.92871 4.92866C6.32716 3.53021 8.10913 2.57822 10.0488 2.19233C11.9886 1.80648 13.9999 2.00382 15.8271 2.76069C17.6543 3.51756 19.2157 4.79987 20.3144 6.44429C21.4133 8.08878 22 10.0221 22 11.9999C22 12.5522 21.5523 12.9999 21 12.9999C20.4477 12.9999 20 12.5522 20 11.9999Z" fill="currentColor"/>
</svg>
