<svg width="24" height="24" viewBox="0 0 24 24" fill="currentColor" xmlns="http://www.w3.org/2000/svg">
<path d="M20 12C20 7.58172 16.4183 4 12 4C7.58172 4 4 7.58172 4 12C4 16.4183 7.58172 20 12 20C16.4183 20 20 16.4183 20 12ZM22 12C22 17.5228 17.5228 22 12 22C6.47715 22 2 17.5228 2 12C2 6.47715 6.47715 2 12 2C17.5228 2 22 6.47715 22 12Z" fill="currentColor"/>
<path d="M11 10.7637V7C11 6.44772 11.4477 6 12 6C12.5523 6 13 6.44772 13 7V10.7637C13 10.9494 13.0517 11.132 13.1494 11.29C13.247 11.4478 13.3868 11.5752 13.5527 11.6582L16.4473 13.1055L16.5361 13.1562C16.9643 13.4276 17.1261 13.9842 16.8945 14.4473C16.663 14.9104 16.1204 15.1153 15.6465 14.9355L15.5527 14.8945L12.6592 13.4473C12.1608 13.1982 11.7413 12.8157 11.4482 12.3418C11.1552 11.8678 11 11.3209 11 10.7637Z" fill="currentColor"/>
</svg>
