<svg width="24" height="24" viewBox="0 0 24 24" fill="currentColor" xmlns="http://www.w3.org/2000/svg">
<path d="M18 22V20H16C15.4477 20 15 19.5523 15 19C15 18.4477 15.4477 18 16 18H18V16C18 15.4477 18.4477 15 19 15C19.5523 15 20 15.4477 20 16V18H22C22.5523 18 23 18.4477 23 19C23 19.5523 22.5523 20 22 20H20V22C20 22.5523 19.5523 23 19 23C18.4477 23 18 22.5523 18 22Z" fill="currentColor"/>
<path fill-rule="evenodd" clip-rule="evenodd" d="M12 2C6.477 2 2 6.477 2 12C2 17.523 6.477 22 12 22C12.5873 22 13.1607 21.951 13.72 21.853C13.2469 20.9765 12.9995 19.996 13 19C13 17.254 13.746 15.682 14.936 14.586L12.658 13.447C12.1598 13.1978 11.7408 12.8148 11.448 12.341C11.1551 11.8671 11 11.3211 11 10.764V7C11 6.73478 11.1054 6.48043 11.2929 6.29289C11.4804 6.10536 11.7348 6 12 6C12.2652 6 12.5196 6.10536 12.7071 6.29289C12.8946 6.48043 13 6.73478 13 7V10.764C13.0001 10.9497 13.0519 11.1316 13.1496 11.2895C13.2472 11.4474 13.3869 11.575 13.553 11.658L16.447 13.106C16.596 13.18 16.718 13.286 16.809 13.412C17.5072 13.139 18.2503 12.9993 19 13C20.033 13 21.004 13.26 21.853 13.72C21.9515 13.152 22.0007 12.5765 22 12C22 6.477 17.523 2 12 2Z" fill="currentColor"/>
</svg>
