<svg width="24" height="24" viewBox="0 0 24 24" fill="currentColor" xmlns="http://www.w3.org/2000/svg">
<path d="M16.293 6.29289C16.6835 5.90237 17.3165 5.90237 17.707 6.29289C18.0976 6.68342 18.0976 7.31643 17.707 7.70696L13.4141 11.9999L17.707 16.2929L17.7754 16.3691C18.0957 16.7618 18.0731 17.3408 17.707 17.707C17.3409 18.0731 16.7619 18.0957 16.3691 17.7753L16.293 17.707L12 13.414L7.70703 17.707C7.31651 18.0975 6.68349 18.0975 6.29297 17.707C5.90245 17.3164 5.90245 16.6834 6.29297 16.2929L10.5859 11.9999L6.29297 7.70696C5.90245 7.31643 5.90245 6.68342 6.29297 6.29289C6.68349 5.90237 7.31651 5.90237 7.70703 6.29289L12 10.5859L16.293 6.29289Z" fill="currentColor"/>
</svg>
