<svg width="24" height="24" viewBox="0 0 24 24" fill="currentColor" xmlns="http://www.w3.org/2000/svg">
<path d="M20 12C20 11.7348 19.8946 11.4805 19.707 11.293C19.5195 11.1054 19.2652 11 19 11H12C11.7348 11 11.4805 11.1054 11.293 11.293C11.1054 11.4805 11 11.7348 11 12V17C11 17.2652 11.1054 17.5195 11.293 17.707C11.4805 17.8946 11.7348 18 12 18H17.3936C17.9861 17.9999 18.5656 18.1752 19.0586 18.5039L20 19.1309V12ZM13 7V5C13 4.73478 12.8946 4.48051 12.707 4.29297C12.5195 4.10543 12.2652 4 12 4H5C4.73478 4 4.4805 4.10543 4.29297 4.29297C4.10543 4.4805 4 4.73478 4 5V12.1309L4.94141 11.5039C5.43441 11.1752 6.01392 10.9999 6.60645 11H7C7.55228 11 8 11.4477 8 12C8 12.5523 7.55228 13 7 13H6.60547C6.40805 13 6.21504 13.0584 6.05078 13.168L3.55469 14.832C3.2479 15.0366 2.85344 15.0557 2.52832 14.8818C2.20316 14.7078 2 14.3688 2 14V5C2 4.20435 2.3163 3.44152 2.87891 2.87891C3.44152 2.3163 4.20435 2 5 2H12C12.7956 2 13.5585 2.3163 14.1211 2.87891C14.6837 3.44151 15 4.20435 15 5V7C15 7.55228 14.5523 8 14 8C13.4477 8 13 7.55228 13 7ZM22 21C22 21.3688 21.7968 21.7078 21.4717 21.8818C21.1466 22.0557 20.7521 22.0366 20.4453 21.832L17.9492 20.168C17.785 20.0584 17.5919 20 17.3945 20H12C11.2043 20 10.4415 19.6837 9.87891 19.1211C9.3163 18.5585 9 17.7957 9 17V12C9 11.2043 9.3163 10.4415 9.87891 9.87891C10.4415 9.3163 11.2043 9 12 9H19C19.7957 9 20.5585 9.3163 21.1211 9.87891C21.6837 10.4415 22 11.2043 22 12V21Z" fill="currentColor"/>
</svg>
