<svg width="24" height="24" viewBox="0 0 24 24" fill="currentColor" xmlns="http://www.w3.org/2000/svg">
<path d="M19 4H5C4.46957 4 3.96086 4.21071 3.58579 4.58579C3.21071 4.96086 3 5.46957 3 6V16C3 16.5304 3.21071 17.0391 3.58579 17.4142C3.96086 17.7893 4.46957 18 5 18H8.188C9.188 18 10 18.811 10 19.812C10 20.62 10.976 21.024 11.547 20.453L13.414 18.586C13.789 18.2109 14.2976 18.0001 14.828 18H19C19.5304 18 20.0391 17.7893 20.4142 17.4142C20.7893 17.0391 21 16.5304 21 16V6C21 5.46957 20.7893 4.96086 20.4142 4.58579C20.0391 4.21071 19.5304 4 19 4Z" fill="currentColor"/>
<path d="M20 6C20 5.73478 19.8946 5.48051 19.707 5.29297C19.5429 5.12883 19.3276 5.02757 19.0986 5.00488L19 5H5C4.73478 5 4.4805 5.10543 4.29297 5.29297C4.10543 5.4805 4 5.73478 4 6V16C4 16.2652 4.10543 16.5195 4.29297 16.707C4.48051 16.8946 4.73478 17 5 17H8.18848C9.66773 17.0002 10.8781 18.144 10.9883 19.5967L12.707 17.8789L12.9268 17.6797C13.4605 17.2422 14.132 17.0001 14.8281 17H19C19.2652 17 19.5195 16.8946 19.707 16.707C19.8946 16.5195 20 16.2652 20 16V6ZM22 16C22 16.7957 21.6837 17.5585 21.1211 18.1211C20.5585 18.6837 19.7957 19 19 19H14.8281C14.563 19.0001 14.3086 19.1054 14.1211 19.293L12.2539 21.1602C11.053 22.3609 9 21.5104 9 19.8115C8.99974 19.3635 8.63617 19.0003 8.18848 19H5C4.20435 19 3.44151 18.6837 2.87891 18.1211C2.3163 17.5585 2 16.7956 2 16V6C2 5.20435 2.3163 4.44152 2.87891 3.87891C3.44152 3.3163 4.20435 3 5 3H19C19.7957 3 20.5585 3.3163 21.1211 3.87891C21.6837 4.44151 22 5.20435 22 6V16Z" fill="currentColor"/>
</svg>
