<svg width="24" height="24" viewBox="0 0 24 24" fill="currentColor" xmlns="http://www.w3.org/2000/svg">
<path d="M20 16V6C20 5.73478 19.8946 5.48051 19.707 5.29297C19.5429 5.12883 19.3276 5.02757 19.0986 5.00488L19 5H5C4.73478 5 4.4805 5.10543 4.29297 5.29297C4.10543 5.4805 4 5.73478 4 6V19L5.86719 17.5996C6.38642 17.2103 7.01801 17 7.66699 17H19C19.2652 17 19.5195 16.8946 19.707 16.707C19.8946 16.5195 20 16.2652 20 16ZM11 13C11.5523 13 12 13.4477 12 14C12 14.5523 11.5523 15 11 15H7C6.44772 15 6 14.5523 6 14C6 13.4477 6.44772 13 7 13H11ZM17 10C17.5523 10 18 10.4477 18 11C18 11.5523 17.5523 12 17 12H7C6.44772 12 6 11.5523 6 11C6 10.4477 6.44772 10 7 10H17ZM17 7C17.5523 7 18 7.44772 18 8C18 8.55228 17.5523 9 17 9H7C6.44772 9 6 8.55228 6 8C6 7.44772 6.44772 7 7 7H17ZM22 16C22 16.7957 21.6837 17.5585 21.1211 18.1211C20.5585 18.6837 19.7957 19 19 19H7.66699C7.45069 19 7.24045 19.0704 7.06738 19.2002L3.59961 21.7998C3.29661 22.027 2.89146 22.0639 2.55273 21.8945C2.21396 21.7251 2 21.3788 2 21V6C2 5.20435 2.3163 4.44152 2.87891 3.87891C3.44152 3.3163 4.20435 3 5 3H19C19.7957 3 20.5585 3.3163 21.1211 3.87891C21.6837 4.44151 22 5.20435 22 6V16Z" fill="currentColor"/>
</svg>
