<svg width="24" height="24" viewBox="0 0 24 24" fill="currentColor" xmlns="http://www.w3.org/2000/svg">
<path d="M20 6C20 5.73478 19.8946 5.48051 19.707 5.29297C19.5429 5.12883 19.3276 5.02757 19.0986 5.00488L19 5H5C4.73478 5 4.4805 5.10543 4.29297 5.29297C4.10543 5.4805 4 5.73478 4 6V19L5.86719 17.5996C6.38642 17.2103 7.01801 17 7.66699 17H19C19.2652 17 19.5195 16.8946 19.707 16.707C19.8946 16.5195 20 16.2652 20 16V6ZM22 16C22 16.7957 21.6837 17.5585 21.1211 18.1211C20.5585 18.6837 19.7957 19 19 19H7.66699C7.45069 19 7.24045 19.0704 7.06738 19.2002L3.59961 21.7998C3.29661 22.027 2.89146 22.0639 2.55273 21.8945C2.21396 21.7251 2 21.3788 2 21V6C2 5.20435 2.3163 4.44152 2.87891 3.87891C3.44152 3.3163 4.20435 3 5 3H19C19.7957 3 20.5585 3.3163 21.1211 3.87891C21.6837 4.44151 22 5.20435 22 6V16Z" fill="currentColor"/>
</svg>
