<svg width="24" height="24" viewBox="0 0 24 24" fill="currentColor" xmlns="http://www.w3.org/2000/svg">
<path d="M17 8H7V18L7.00488 18.0986C7.02757 18.3276 7.12883 18.5429 7.29297 18.707C7.48051 18.8946 7.73478 19 8 19H16C16.2652 19 16.5195 18.8946 16.707 18.707C16.8946 18.5195 17 18.2652 17 18V8ZM12 5C11.4696 5 10.961 5.21087 10.5859 5.58594C10.4616 5.71031 10.357 5.85033 10.2705 6H13.7295C13.643 5.85033 13.5384 5.71031 13.4141 5.58594C13.039 5.21087 12.5304 5 12 5ZM19 18C19 18.7957 18.6837 19.5585 18.1211 20.1211C17.5585 20.6837 16.7957 21 16 21H8C7.20435 21 6.44151 20.6837 5.87891 20.1211C5.3163 19.5585 5 18.7956 5 18V8H4C3.44772 8 3 7.55228 3 7C3 6.44772 3.44772 6 4 6H8.12793C8.3051 5.31406 8.66239 4.68136 9.17188 4.17188C9.92202 3.42173 10.9391 3 12 3C13.0609 3 14.078 3.42173 14.8281 4.17188C15.3376 4.68136 15.6949 5.31406 15.8721 6H20C20.5523 6 21 6.44772 21 7C21 7.55228 20.5523 8 20 8H19V18Z" fill="currentColor"/>
</svg>
