<svg width="24" height="24" viewBox="0 0 24 24" fill="currentColor" xmlns="http://www.w3.org/2000/svg">
<path d="M9 7H18V18C18 18.5304 17.7893 19.0391 17.4142 19.4142C17.0391 19.7893 16.5304 20 16 20H8C7.46957 20 6.96086 19.7893 6.58579 19.4142C6.21071 19.0391 6 18.5304 6 18V7H9Z" fill="currentColor"/>
<path d="M17 8H7V18L7.00488 18.0986C7.02757 18.3276 7.12883 18.5429 7.29297 18.707C7.48051 18.8946 7.73478 19 8 19H16C16.2652 19 16.5195 18.8946 16.707 18.707C16.8946 18.5195 17 18.2652 17 18V8ZM11.5 5C11.1022 5 10.7208 5.15815 10.4395 5.43945C10.2799 5.59899 10.1618 5.7913 10.0879 6H13.9121C13.8382 5.7913 13.7201 5.59899 13.5605 5.43945C13.3145 5.19337 12.9917 5.04195 12.6484 5.00781L12.5 5H11.5ZM19 18C19 18.7957 18.6837 19.5585 18.1211 20.1211C17.5585 20.6837 16.7957 21 16 21H8C7.20435 21 6.44151 20.6837 5.87891 20.1211C5.3163 19.5585 5 18.7956 5 18V8H4C3.44772 8 3 7.55228 3 7C3 6.44772 3.44772 6 4 6H8.03613C8.14343 5.25662 8.48803 4.56275 9.02539 4.02539C9.68177 3.36901 10.5717 3 11.5 3H12.5C13.4283 3 14.3182 3.36901 14.9746 4.02539C15.512 4.56275 15.8566 5.25662 15.9639 6H20C20.5523 6 21 6.44772 21 7C21 7.55228 20.5523 8 20 8H19V18Z" fill="currentColor"/>
</svg>
