<svg width="24" height="24" viewBox="0 0 24 24" fill="currentColor" xmlns="http://www.w3.org/2000/svg">
<path d="M2 17.5119V6.48845C1.99986 5.84327 2.20776 5.21514 2.59277 4.69743C2.97782 4.17971 3.51973 3.79992 4.1377 3.61443L10.1377 1.81462C10.5857 1.68017 11.0589 1.6516 11.5195 1.73259C11.9802 1.81359 12.4158 2.00124 12.791 2.28044C13.1662 2.55962 13.4707 2.92309 13.6807 3.34099C13.8905 3.75881 14 4.22012 14 4.68767V19.3117L13.9951 19.4865C13.9714 19.894 13.8644 20.2935 13.6807 20.6593C13.4708 21.0771 13.166 21.4398 12.791 21.7189C12.4158 21.9981 11.9802 22.1858 11.5195 22.2668C11.0589 22.3478 10.5857 22.3202 10.1377 22.1857L4.1377 20.3859C3.51973 20.2004 2.97782 19.8206 2.59277 19.3029C2.25591 18.85 2.05476 18.3125 2.00977 17.7531L2 17.5119ZM20 18.0002V17.0002C20 16.4479 20.4477 16.0002 21 16.0002C21.5523 16.0002 22 16.4479 22 17.0002V18.0002C22 18.7958 21.6837 19.5587 21.1211 20.1213C20.5585 20.6839 19.7956 21.0002 19 21.0002H16C15.4477 21.0002 15 20.5524 15 20.0002C15 19.4479 15.4477 19.0002 16 19.0002H19C19.2652 19.0002 19.5195 18.8947 19.707 18.7072C19.8946 18.5197 20 18.2654 20 18.0002ZM18.2939 9.29314C18.6601 8.92702 19.2391 8.90441 19.6318 9.22478L19.708 9.29314L21.708 11.2931C22.0985 11.6837 22.0985 12.3167 21.708 12.7072L19.708 14.7072C19.3175 15.0977 18.6845 15.0977 18.2939 14.7072C17.9034 14.3167 17.9035 13.6837 18.2939 13.2931L18.5869 13.0002H16.001C15.4487 13.0002 15.001 12.5524 15.001 12.0002C15.001 11.4479 15.4487 11.0002 16.001 11.0002H18.5869L18.2939 10.7072L18.2256 10.631C17.9052 10.2383 17.9279 9.65926 18.2939 9.29314ZM20 7.00017V6.00017C20 5.73497 19.8945 5.48067 19.707 5.29314C19.5429 5.129 19.3276 5.02774 19.0986 5.00505L19 5.00017H16C15.4477 5.00017 15 4.55243 15 4.00017C15 3.44788 15.4477 3.00017 16 3.00017H19C19.7957 3.00017 20.5585 3.31647 21.1211 3.87908C21.6837 4.44168 22 5.20453 22 6.00017V7.00017C22 7.55243 21.5523 8.00017 21 8.00017C20.4477 8.00017 20 7.55243 20 7.00017ZM4 17.5119C3.99995 17.727 4.06892 17.937 4.19727 18.1095C4.32561 18.2821 4.5069 18.4081 4.71289 18.4699L10.7119 20.2707H10.7129C10.862 20.3154 11.0195 20.324 11.1729 20.297C11.3264 20.27 11.4716 20.2075 11.5967 20.1144C11.7218 20.0213 11.8236 19.9002 11.8936 19.7609C11.9634 19.6218 12 19.4684 12 19.3127V4.68767C12 4.53182 11.9635 4.37772 11.8936 4.23845C11.8236 4.09926 11.7217 3.97794 11.5967 3.88493C11.4717 3.79202 11.3263 3.72929 11.1729 3.70232C11.0195 3.67542 10.862 3.68498 10.7129 3.72966H10.7119L4.71289 5.52947C4.5069 5.5913 4.32561 5.71822 4.19727 5.89079C4.06904 6.06324 4.00004 6.27259 4 6.48747V17.5119Z" fill="currentColor"/>
</svg>
