<svg width="24" height="24" viewBox="0 0 24 24" fill="currentColor" xmlns="http://www.w3.org/2000/svg">
<path fill-rule="evenodd" clip-rule="evenodd" d="M15.586 2.99988C15.9611 2.62494 16.4697 2.41431 17 2.41431C17.5303 2.41431 18.0389 2.62494 18.414 2.99988L21 5.58588C21.3749 5.96093 21.5856 6.46955 21.5856 6.99988C21.5856 7.53021 21.3749 8.03882 21 8.41388L19.414 9.99988L14 4.58588L15.586 2.99988ZM12.586 5.99988L3.586 14.9999C3.2109 15.3749 3.00011 15.8835 3 16.4139V18.9999C3 19.5303 3.21071 20.039 3.58579 20.4141C3.96086 20.7892 4.46957 20.9999 5 20.9999H7.586C8.11639 20.9998 8.62501 20.789 9 20.4139L18 11.4139L12.586 5.99988Z" fill="currentColor"/>
</svg>
