<svg width="24" height="24" viewBox="0 0 24 24" fill="currentColor" xmlns="http://www.w3.org/2000/svg">
<path d="M17 4.41431L15.4141 6.00024L18 8.58618L19.5859 7.00024L17 4.41431ZM5 19.0002H7.58594L16.5859 10.0002L14 7.41431L5 16.4143V19.0002ZM21.5859 7.00024C21.5859 7.53052 21.3749 8.03929 21 8.41431L9 20.4143C8.62503 20.7893 8.11622 21.0001 7.58594 21.0002H5C4.4696 21.0002 3.961 20.7893 3.58594 20.4143C3.2109 20.0393 3.00004 19.5306 3 19.0002V16.4143C3.00011 15.884 3.21097 15.3752 3.58594 15.0002L15.5859 3.00024L15.7324 2.86743C16.0883 2.57576 16.5358 2.41431 17 2.41431C17.5303 2.41431 18.039 2.6253 18.4141 3.00024L21 5.58618C21.3749 5.96123 21.5859 6.46991 21.5859 7.00024Z" fill="currentColor"/>
</svg>
