<svg width="24" height="24" viewBox="0 0 24 24" fill="currentColor" xmlns="http://www.w3.org/2000/svg">
<path fill-rule="evenodd" clip-rule="evenodd" d="M4.18996 7.262C5.93996 5.577 8.51696 4 12 4C15.483 4 18.06 5.577 19.81 7.262C21.0356 8.45235 22.0504 9.84209 22.811 11.372C23.004 11.771 23.004 12.229 22.811 12.627C22.0507 14.1572 21.0363 15.5473 19.811 16.738C18.06 18.423 15.483 20 12 20C8.51696 20 5.93996 18.423 4.18996 16.738C2.9643 15.5476 1.94956 14.1579 1.18896 12.628C1.09424 12.4324 1.04504 12.2178 1.04504 12.0005C1.04504 11.7832 1.09424 11.5686 1.18896 11.373C1.94917 9.8428 2.96457 8.45273 4.18996 7.262ZM12 15C12.7956 15 13.5587 14.6839 14.1213 14.1213C14.6839 13.5587 15 12.7956 15 12C15 11.2044 14.6839 10.4413 14.1213 9.87868C13.5587 9.31607 12.7956 9 12 9C11.2043 9 10.4412 9.31607 9.87864 9.87868C9.31603 10.4413 8.99996 11.2044 8.99996 12C8.99996 12.7956 9.31603 13.5587 9.87864 14.1213C10.4412 14.6839 11.2043 15 12 15Z" fill="currentColor"/>
</svg>
