<svg width="24" height="24" viewBox="0 0 24 24" fill="currentColor" xmlns="http://www.w3.org/2000/svg">
<path d="M17 4C13.8 4 12 6.667 12 8C12 6.667 10.2 4 7 4C3.8 4 3 6.667 3 8C3 15 12 20 12 20C12 20 21 15 21 8C21 6.667 20.2 4 17 4Z" fill="currentColor"/>
<path d="M12.4854 20.874C12.1834 21.0417 11.8166 21.0417 11.5146 20.874L12 20L12.4854 20.874ZM11 8C11 7.69005 10.7317 6.93122 10 6.21387C9.3106 5.538 8.30342 5 7 5C5.7261 5 5.02597 5.50816 4.61133 6.08398C4.15999 6.71088 4 7.49355 4 8C4 11.0762 5.9938 13.8275 8.18652 15.8984C9.2638 16.9158 10.3456 17.7267 11.1592 18.2842C11.492 18.5122 11.7792 18.6955 12 18.833C12.2208 18.6955 12.508 18.5122 12.8408 18.2842C13.6544 17.7267 14.7362 16.9158 15.8135 15.8984C18.0062 13.8275 20 11.0762 20 8C20 7.49355 19.84 6.71088 19.3887 6.08398C18.974 5.50816 18.2739 5 17 5C15.6966 5 14.6894 5.538 14 6.21387C13.2683 6.93122 13 7.69005 13 8C13 8.55228 12.5523 9 12 9C11.4477 9 11 8.55228 11 8ZM22 8C22 11.9237 19.4937 15.1725 17.1865 17.3516C16.0139 18.4591 14.8456 19.3358 13.9717 19.9346C13.5338 20.2346 13.1673 20.4667 12.9082 20.625C12.7786 20.7042 12.6754 20.7649 12.6035 20.8066C12.5677 20.8275 12.5394 20.8432 12.5195 20.8545C12.5096 20.8601 12.5018 20.865 12.4961 20.8682C12.4933 20.8697 12.491 20.8711 12.4893 20.8721L12.4873 20.873L12.4863 20.874C12.486 20.8742 12.4823 20.8682 12 20C11.5177 20.8682 11.514 20.8742 11.5137 20.874L11.5127 20.873L11.5107 20.8721C11.509 20.8711 11.5067 20.8697 11.5039 20.8682C11.4982 20.865 11.4904 20.8601 11.4805 20.8545C11.4606 20.8432 11.4323 20.8275 11.3965 20.8066C11.3246 20.7649 11.2214 20.7042 11.0918 20.625C10.8327 20.4667 10.4662 20.2346 10.0283 19.9346C9.15441 19.3358 7.98614 18.4591 6.81348 17.3516C4.50625 15.1725 2 11.9237 2 8C2 7.1735 2.23973 5.95583 2.98828 4.91602C3.77365 3.82517 5.07403 3 7 3C8.89651 3 10.3898 3.79531 11.4004 4.78613C11.6188 5.00025 11.8193 5.22981 12 5.46777C12.1807 5.22981 12.3812 5.00025 12.5996 4.78613C13.6102 3.79531 15.1035 3 17 3C18.926 3 20.2263 3.82517 21.0117 4.91602C21.7603 5.95583 22 7.1735 22 8Z" fill="currentColor"/>
</svg>
