<svg width="24" height="24" viewBox="0 0 24 24" fill="currentColor" xmlns="http://www.w3.org/2000/svg">
<path d="M20 19V10.5C20 10.3448 19.9639 10.1916 19.8944 10.0528C19.825 9.91393 19.7242 9.79315 19.6 9.7L12.6 4.45C12.4269 4.32018 12.2164 4.25 12 4.25C11.7836 4.25 11.5731 4.32018 11.4 4.45L4.4 9.7C4.2758 9.79315 4.175 9.91393 4.10557 10.0528C4.03614 10.1916 4 10.3448 4 10.5V19C4 19.2652 4.10536 19.5196 4.29289 19.7071C4.48043 19.8946 4.73478 20 5 20H9C9.26522 20 9.51957 19.8946 9.70711 19.7071C9.89464 19.5196 10 19.2652 10 19V16C10 15.7348 10.1054 15.4804 10.2929 15.2929C10.4804 15.1054 10.7348 15 11 15H13C13.2652 15 13.5196 15.1054 13.7071 15.2929C13.8946 15.4804 14 15.7348 14 16V19C14 19.2652 14.1054 19.5196 14.2929 19.7071C14.4804 19.8946 14.7348 20 15 20H19C19.2652 20 19.5196 19.8946 19.7071 19.7071C19.8946 19.5196 20 19.2652 20 19Z" fill="currentColor"/>
<path d="M12 5.25L5 10.5V19H9V16C9 15.4696 9.21087 14.961 9.58594 14.5859C9.96101 14.2109 10.4696 14 11 14H13C13.5304 14 14.039 14.2109 14.4141 14.5859C14.7891 14.961 15 15.4696 15 16V19H19V10.5L12 5.25ZM21 19C21 19.5304 20.7891 20.039 20.4141 20.4141C20.039 20.7891 19.5304 21 19 21H15C14.4696 21 13.961 20.7891 13.5859 20.4141C13.2109 20.039 13 19.5304 13 19V16H11V19C11 19.5304 10.7891 20.039 10.4141 20.4141C10.039 20.7891 9.53043 21 9 21H5C4.46957 21 3.96101 20.7891 3.58594 20.4141C3.21086 20.039 3 19.5304 3 19V10.5C3 10.1895 3.07208 9.88318 3.21094 9.60547C3.34973 9.32788 3.55156 9.08665 3.7998 8.90039L10.7998 3.65039C11.146 3.39075 11.5673 3.25 12 3.25C12.4327 3.25 12.854 3.39075 13.2002 3.65039L20.2002 8.90039C20.4484 9.08666 20.6503 9.32788 20.7891 9.60547C20.9279 9.88318 21 10.1895 21 10.5V19Z" fill="currentColor"/>
</svg>
