<svg width="24" height="24" viewBox="0 0 24 24" fill="currentColor" xmlns="http://www.w3.org/2000/svg">
<path d="M12 5.25L5 10.5V19H9V16C9 15.4696 9.21087 14.961 9.58594 14.5859C9.96101 14.2109 10.4696 14 11 14H13C13.5304 14 14.039 14.2109 14.4141 14.5859C14.7891 14.961 15 15.4696 15 16V19H19V10.5L12 5.25ZM21 19C21 19.5304 20.7891 20.039 20.4141 20.4141C20.039 20.7891 19.5304 21 19 21H15C14.4696 21 13.961 20.7891 13.5859 20.4141C13.2109 20.039 13 19.5304 13 19V16H11V19C11 19.5304 10.7891 20.039 10.4141 20.4141C10.039 20.7891 9.53043 21 9 21H5C4.46957 21 3.96101 20.7891 3.58594 20.4141C3.21086 20.039 3 19.5304 3 19V10.5C3 10.1895 3.07208 9.88318 3.21094 9.60547C3.34973 9.32788 3.55156 9.08665 3.7998 8.90039L10.7998 3.65039C11.146 3.39075 11.5673 3.25 12 3.25C12.4327 3.25 12.854 3.39075 13.2002 3.65039L20.2002 8.90039C20.4484 9.08666 20.6503 9.32788 20.7891 9.60547C20.9279 9.88318 21 10.1895 21 10.5V19Z" fill="currentColor"/>
</svg>
