<svg width="136" height="63" viewBox="0 0 136 63" fill="none" xmlns="http://www.w3.org/2000/svg">
<path d="M0 18.5709C0 8.31447 8.31447 0 18.5709 0H106.489C116.745 0 125.06 8.31447 125.06 18.5709C125.06 28.8273 116.745 37.1418 106.489 37.1418H18.5709C8.31448 37.1418 0 28.8273 0 18.5709Z" fill="#4DDB6D"/>
<path d="M10.3433 44.429C10.3433 34.1726 18.6577 25.8582 28.9142 25.8582H116.832C127.088 25.8582 135.403 34.1726 135.403 44.429C135.403 54.6855 127.088 62.9999 116.832 62.9999H28.9142C18.6577 62.9999 10.3433 54.6855 10.3433 44.429Z" fill="#4DDB6D"/>
<path d="M22.9169 27.0255C20.0598 27.0255 18.0626 25.9715 16.9253 23.9188L19.8379 22.2822C20.4204 23.3917 21.3358 23.8633 22.7227 23.8633C23.9987 23.8633 24.8031 23.364 24.8031 22.5596C24.8031 20.3405 17.2582 22.2545 17.2582 16.9563C17.2582 14.4876 19.4218 12.5459 22.8059 12.5459C25.7462 12.5459 27.5215 13.9328 28.3537 15.5139L25.4411 17.1505C24.9973 16.1519 23.9987 15.6804 22.8891 15.6804C21.9183 15.6804 21.1971 16.1519 21.1971 16.8731C21.1971 19.0922 28.742 17.3169 28.742 22.4764C28.742 25.2502 26.0514 27.0255 22.9169 27.0255Z" fill="white"/>
<path d="M37.0901 26.9978C32.8738 26.9978 29.6561 23.7246 29.6561 19.7302C29.6561 15.7636 32.9015 12.4904 37.0901 12.4904C41.3341 12.4904 44.5518 15.7913 44.5518 19.7302C44.5518 23.7246 41.3064 26.9978 37.0901 26.9978ZM37.0901 23.3085C39.115 23.3085 40.6129 21.6997 40.6129 19.758C40.6129 17.8162 39.115 16.2074 37.0901 16.2074C35.0652 16.2074 33.595 17.8162 33.595 19.758C33.595 21.6997 35.0652 23.3085 37.0901 23.3085Z" fill="white"/>
<path d="M53.4961 27.0255C49.2243 27.0255 46.0621 23.9465 46.0621 19.7857V6.58203H50.001V13.7941C51.0273 13.0174 52.3311 12.5181 53.718 12.5181C57.9898 12.5181 60.9301 15.5139 60.9301 19.7857C60.9301 23.7523 57.7401 27.0255 53.4961 27.0255ZM53.4961 23.3085C55.521 23.3085 56.9912 21.7274 56.9912 19.7857C56.9912 17.844 55.521 16.2351 53.4961 16.2351C51.4711 16.2351 50.001 17.844 50.001 19.7857C50.001 21.7274 51.4711 23.3085 53.4961 23.3085Z" fill="white"/>
<path d="M69.1923 26.9978C64.976 26.9978 61.7583 23.7246 61.7583 19.7302C61.7583 15.7636 65.0038 12.4904 69.1923 12.4904C73.4364 12.4904 76.6541 15.7913 76.6541 19.7302C76.6541 23.7246 73.4086 26.9978 69.1923 26.9978ZM69.1923 23.3085C71.2173 23.3085 72.7152 21.6997 72.7152 19.758C72.7152 17.8162 71.2173 16.2074 69.1923 16.2074C67.1674 16.2074 65.6973 17.8162 65.6973 19.758C65.6973 21.6997 67.1674 23.3085 69.1923 23.3085Z" fill="white"/>
<path d="M84.9048 26.9978C80.6886 26.9978 77.4709 23.7246 77.4709 19.7302C77.4709 15.7636 80.7163 12.4904 84.9048 12.4904C89.1489 12.4904 92.3666 15.7913 92.3666 19.7302C92.3666 23.7246 89.1211 26.9978 84.9048 26.9978ZM84.9048 23.3085C86.9298 23.3085 88.4277 21.6997 88.4277 19.758C88.4277 17.8162 86.9298 16.2074 84.9048 16.2074C82.8799 16.2074 81.4098 17.8162 81.4098 19.758C81.4098 21.6997 82.8799 23.3085 84.9048 23.3085Z" fill="white"/>
<path d="M101.033 16.3461C98.8143 16.3461 97.8157 18.1491 97.8157 20.2573V26.6372H93.8768V19.7857C93.8768 15.7913 96.2346 12.5181 101.033 12.5181C105.832 12.5181 108.246 15.7636 108.246 19.7857V26.6372H104.307V20.2573C104.307 18.1491 103.28 16.3461 101.033 16.3461Z" fill="white"/>
<path d="M33.2601 52.8837C30.403 52.8837 28.4058 51.8296 27.2686 49.7769L30.1811 48.1403C30.7636 49.2499 31.679 49.7215 33.066 49.7215C34.3419 49.7215 35.1464 49.2222 35.1464 48.4177C35.1464 46.1986 27.6014 48.1126 27.6014 42.8145C27.6014 40.3457 29.765 38.404 33.1492 38.404C36.0895 38.404 37.8648 39.791 38.6969 41.3721L35.7844 43.0087C35.3405 42.0101 34.3419 41.5385 33.2324 41.5385C32.2615 41.5385 31.5403 42.0101 31.5403 42.7313C31.5403 44.9504 39.0853 43.1751 39.0853 48.3345C39.0853 51.1084 36.3946 52.8837 33.2601 52.8837Z" fill="white"/>
<path d="M47.4334 52.8559C43.2171 52.8559 39.9994 49.5828 39.9994 45.5884C39.9994 41.6217 43.2448 38.3486 47.4334 38.3486C51.6774 38.3486 54.8951 41.6495 54.8951 45.5884C54.8951 49.5828 51.6497 52.8559 47.4334 52.8559ZM47.4334 49.1667C49.4583 49.1667 50.9562 47.5578 50.9562 45.6161C50.9562 43.6744 49.4583 42.0655 47.4334 42.0655C45.4084 42.0655 43.9383 43.6744 43.9383 45.6161C43.9383 47.5578 45.4084 49.1667 47.4334 49.1667Z" fill="white"/>
<path d="M63.8393 52.8837C59.5676 52.8837 56.4053 49.8047 56.4053 45.6439V32.4402H60.3443V39.6523C61.3706 38.8756 62.6743 38.3763 64.0613 38.3763C68.333 38.3763 71.2733 41.3721 71.2733 45.6439C71.2733 49.6105 68.0834 52.8837 63.8393 52.8837ZM63.8393 49.1667C65.8643 49.1667 67.3344 47.5856 67.3344 45.6439C67.3344 43.7021 65.8643 42.0933 63.8393 42.0933C61.8144 42.0933 60.3443 43.7021 60.3443 45.6439C60.3443 47.5856 61.8144 49.1667 63.8393 49.1667Z" fill="white"/>
<path d="M79.5356 52.8559C75.3193 52.8559 72.1016 49.5828 72.1016 45.5884C72.1016 41.6217 75.347 38.3486 79.5356 38.3486C83.7796 38.3486 86.9973 41.6495 86.9973 45.5884C86.9973 49.5828 83.7519 52.8559 79.5356 52.8559ZM79.5356 49.1667C81.5605 49.1667 83.0584 47.5578 83.0584 45.6161C83.0584 43.6744 81.5605 42.0655 79.5356 42.0655C77.5107 42.0655 76.0405 43.6744 76.0405 45.6161C76.0405 47.5578 77.5107 49.1667 79.5356 49.1667Z" fill="white"/>
<path d="M95.2481 52.8559C91.0318 52.8559 87.8141 49.5828 87.8141 45.5884C87.8141 41.6217 91.0596 38.3486 95.2481 38.3486C99.4921 38.3486 102.71 41.6495 102.71 45.5884C102.71 49.5828 99.4644 52.8559 95.2481 52.8559ZM95.2481 49.1667C97.273 49.1667 98.7709 47.5578 98.7709 45.6161C98.7709 43.6744 97.273 42.0655 95.2481 42.0655C93.2232 42.0655 91.753 43.6744 91.753 45.6161C91.753 47.5578 93.2232 49.1667 95.2481 49.1667Z" fill="white"/>
<path d="M111.377 42.2042C109.158 42.2042 108.159 44.0073 108.159 46.1154V52.4953H104.22V45.6439C104.22 41.6495 106.578 38.3763 111.377 38.3763C116.176 38.3763 118.589 41.6217 118.589 45.6439V52.4953H114.65V46.1154C114.65 44.0073 113.624 42.2042 111.377 42.2042Z" fill="white"/>
</svg>
