<svg width="24" height="24" viewBox="0 0 24 24" fill="currentColor" xmlns="http://www.w3.org/2000/svg">
<path d="M20 13.0176C15.5434 13.1714 12.6799 14.3518 10.8809 15.7734C12.982 16.5322 15.0493 17.8402 16.54 20H19C19.2652 20 19.5195 19.8946 19.707 19.707C19.8946 19.5195 20 19.2652 20 19V13.0176ZM9 8.5C9 8.34276 8.96839 8.25872 8.94727 8.21777C8.92575 8.17608 8.89637 8.1422 8.85352 8.11133C8.80704 8.07787 8.74434 8.04836 8.6709 8.02734C8.59592 8.00592 8.53181 8 8.5 8C8.46819 8 8.40408 8.00592 8.3291 8.02734C8.25566 8.04836 8.19296 8.07787 8.14648 8.11133C8.10363 8.1422 8.07425 8.17608 8.05273 8.21777C8.03161 8.25872 8 8.34276 8 8.5C8 8.65724 8.03161 8.74128 8.05273 8.78223C8.07425 8.82392 8.10363 8.8578 8.14648 8.88867C8.19296 8.92213 8.25566 8.95164 8.3291 8.97266C8.40408 8.99408 8.46819 9 8.5 9C8.53181 9 8.59592 8.99408 8.6709 8.97266C8.74434 8.95164 8.80704 8.92213 8.85352 8.88867C8.89637 8.8578 8.92575 8.82392 8.94727 8.78223C8.96839 8.74128 9 8.65724 9 8.5ZM18 8V6H16C15.4477 6 15 5.55228 15 5C15 4.44772 15.4477 4 16 4H18V2C18 1.44772 18.4477 1 19 1C19.5523 1 20 1.44772 20 2V4H22C22.5523 4 23 4.44772 23 5C23 5.55228 22.5523 6 22 6H20V8C20 8.55228 19.5523 9 19 9C18.4477 9 18 8.55228 18 8ZM4 19C4 19.2652 4.10543 19.5195 4.29297 19.707C4.48051 19.8946 4.73478 20 5 20H13.9541C12.4938 18.5087 10.6127 17.6555 8.71973 17.2168H8.71875C6.97143 16.811 5.26826 16.7731 4 16.8848V19ZM22 19C22 19.7957 21.6837 20.5585 21.1211 21.1211C20.5585 21.6837 19.7957 22 19 22H5C4.20435 22 3.44151 21.6837 2.87891 21.1211C2.3163 20.5585 2 19.7957 2 19V5C2 4.20435 2.3163 3.44152 2.87891 2.87891C3.44152 2.3163 4.20435 2 5 2H13C13.5523 2 14 2.44772 14 3C14 3.55228 13.5523 4 13 4H5C4.73478 4 4.4805 4.10543 4.29297 4.29297C4.10543 4.4805 4 4.73478 4 5V14.876C5.29347 14.7773 6.90923 14.8196 8.59277 15.1465C10.729 12.9476 14.322 11.2002 20 11.0166V10.5C20 9.94771 20.4477 9.5 21 9.5C21.5523 9.5 22 9.94771 22 10.5V19ZM11 8.5C11 9.42592 10.5915 10.1013 10.0215 10.5117C9.50255 10.8852 8.90994 11 8.5 11C8.09006 11 7.49745 10.8852 6.97852 10.5117C6.40852 10.1013 6 9.42592 6 8.5C6 7.57408 6.40852 6.89868 6.97852 6.48828C7.49745 6.11477 8.09006 6 8.5 6C8.90994 6 9.50255 6.11477 10.0215 6.48828C10.5915 6.89868 11 7.57408 11 8.5Z" fill="currentColor"/>
</svg>
