<svg width="24" height="24" viewBox="0 0 24 24" fill="currentColor" xmlns="http://www.w3.org/2000/svg">
<path d="M20 13.0176C15.5434 13.1714 12.6799 14.3518 10.8809 15.7734C12.982 16.5322 15.0493 17.8402 16.54 20H19C19.2652 20 19.5195 19.8946 19.707 19.707C19.8946 19.5195 20 19.2652 20 19V13.0176ZM9 8.5C9 8.34276 8.96839 8.25872 8.94727 8.21777C8.92575 8.17608 8.89637 8.1422 8.85352 8.11133C8.80704 8.07787 8.74434 8.04836 8.6709 8.02734C8.59592 8.00592 8.53181 8 8.5 8C8.46819 8 8.40408 8.00592 8.3291 8.02734C8.25566 8.04836 8.19296 8.07787 8.14648 8.11133C8.10363 8.1422 8.07425 8.17608 8.05273 8.21777C8.03161 8.25872 8 8.34276 8 8.5C8 8.65724 8.03161 8.74128 8.05273 8.78223C8.07425 8.82392 8.10363 8.8578 8.14648 8.88867C8.19296 8.92213 8.25566 8.95164 8.3291 8.97266C8.40408 8.99408 8.46819 9 8.5 9C8.53181 9 8.59592 8.99408 8.6709 8.97266C8.74434 8.95164 8.80704 8.92213 8.85352 8.88867C8.89637 8.8578 8.92575 8.82392 8.94727 8.78223C8.96839 8.74128 9 8.65724 9 8.5ZM4 19C4 19.2652 4.10543 19.5195 4.29297 19.707C4.48051 19.8946 4.73478 20 5 20H13.9541C12.4938 18.5087 10.6127 17.6555 8.71973 17.2168H8.71875C6.97143 16.811 5.26826 16.7731 4 16.8848V19ZM20 5C20 4.73478 19.8946 4.48051 19.707 4.29297C19.5195 4.10543 19.2652 4 19 4H5C4.73478 4 4.4805 4.10543 4.29297 4.29297C4.10543 4.4805 4 4.73478 4 5V14.876C5.29347 14.7773 6.90923 14.8196 8.59277 15.1465C10.729 12.9476 14.322 11.2002 20 11.0166V5ZM11 8.5C11 9.42592 10.5915 10.1013 10.0215 10.5117C9.50255 10.8852 8.90994 11 8.5 11C8.09006 11 7.49745 10.8852 6.97852 10.5117C6.40852 10.1013 6 9.42592 6 8.5C6 7.57408 6.40852 6.89868 6.97852 6.48828C7.49745 6.11477 8.09006 6 8.5 6C8.90994 6 9.50255 6.11477 10.0215 6.48828C10.5915 6.89868 11 7.57408 11 8.5ZM22 19C22 19.7957 21.6837 20.5585 21.1211 21.1211C20.5585 21.6837 19.7957 22 19 22H5C4.20435 22 3.44151 21.6837 2.87891 21.1211C2.3163 20.5585 2 19.7957 2 19V5C2 4.20435 2.3163 3.44152 2.87891 2.87891C3.44152 2.3163 4.20435 2 5 2H19C19.7957 2 20.5585 2.3163 21.1211 2.87891C21.6837 3.44151 22 4.20435 22 5V19Z" fill="currentColor"/>
</svg>
