<svg width="153" height="72" viewBox="0 0 153 72" fill="currentColor" xmlns="http://www.w3.org/2000/svg">
<path d="M9.27446 31.79C4.85192 31.79 1.76043 30.1509 0 26.959L4.50842 24.414C5.4101 26.1394 6.82703 26.8727 8.9739 26.8727C10.949 26.8727 12.1942 26.0963 12.1942 24.8454C12.1942 21.3946 0.515248 24.3709 0.515248 16.1322C0.515248 12.2933 3.86436 9.27389 9.10271 9.27389C13.6541 9.27389 16.4021 11.4306 17.6902 13.8893L13.1818 16.4342C12.4948 14.8814 10.949 14.1481 9.23152 14.1481C7.72872 14.1481 6.61234 14.8814 6.61234 16.0028C6.61234 19.4536 18.2913 16.693 18.2913 24.716C18.2913 29.0294 14.1264 31.79 9.27446 31.79Z" fill="white"/>
<path d="M31.2134 31.7469C24.6869 31.7469 19.7062 26.657 19.7062 20.4457C19.7062 14.2775 24.7299 9.18762 31.2134 9.18762C37.7828 9.18762 42.7635 14.3206 42.7635 20.4457C42.7635 26.657 37.7399 31.7469 31.2134 31.7469ZM31.2134 26.01C34.3478 26.01 36.6664 23.5082 36.6664 20.4888C36.6664 17.4694 34.3478 14.9676 31.2134 14.9676C28.079 14.9676 25.8033 17.4694 25.8033 20.4888C25.8033 23.5082 28.079 26.01 31.2134 26.01Z" fill="white"/>
<path d="M56.6085 31.79C49.9961 31.79 45.1013 27.0021 45.1013 20.5319V0H51.1984V11.2149C52.7871 10.0072 54.8051 9.23075 56.952 9.23075C63.5643 9.23075 68.1157 13.8893 68.1157 20.5319C68.1157 26.7002 63.1779 31.79 56.6085 31.79ZM56.6085 26.01C59.7429 26.01 62.0186 23.5514 62.0186 20.5319C62.0186 17.5125 59.7429 15.0108 56.6085 15.0108C53.4741 15.0108 51.1984 17.5125 51.1984 20.5319C51.1984 23.5514 53.4741 26.01 56.6085 26.01Z" fill="white"/>
<path d="M80.905 31.7469C74.3785 31.7469 69.3978 26.657 69.3978 20.4457C69.3978 14.2775 74.4214 9.18762 80.905 9.18762C87.4744 9.18762 92.4551 14.3206 92.4551 20.4457C92.4551 26.657 87.4314 31.7469 80.905 31.7469ZM80.905 26.01C84.0394 26.01 86.358 23.5082 86.358 20.4888C86.358 17.4694 84.0394 14.9676 80.905 14.9676C77.7705 14.9676 75.4949 17.4694 75.4949 20.4888C75.4949 23.5082 77.7705 26.01 80.905 26.01Z" fill="white"/>
<path d="M105.227 31.7469C98.7001 31.7469 93.7194 26.657 93.7194 20.4457C93.7194 14.2775 98.743 9.18762 105.227 9.18762C111.796 9.18762 116.777 14.3206 116.777 20.4457C116.777 26.657 111.753 31.7469 105.227 31.7469ZM105.227 26.01C108.361 26.01 110.68 23.5082 110.68 20.4888C110.68 17.4694 108.361 14.9676 105.227 14.9676C102.092 14.9676 99.8165 17.4694 99.8165 20.4888C99.8165 23.5082 102.092 26.01 105.227 26.01Z" fill="white"/>
<path d="M130.192 15.1833C126.757 15.1833 125.212 17.987 125.212 21.2652V31.1861H119.114V20.5319C119.114 14.3206 122.764 9.23075 130.192 9.23075C137.62 9.23075 141.356 14.2775 141.356 20.5319V31.1861H135.259V21.2652C135.259 17.987 133.67 15.1833 130.192 15.1833Z" fill="white"/>
<path d="M20.9185 72C16.4959 72 13.4044 70.3609 11.644 67.169L16.1524 64.624C17.0541 66.3494 18.471 67.0827 20.6179 67.0827C22.593 67.0827 23.8382 66.3063 23.8382 65.0554C23.8382 61.6046 12.1593 64.5809 12.1593 56.3422C12.1593 52.5033 15.5084 49.4839 20.7467 49.4839C25.2981 49.4839 28.0461 51.6406 29.3342 54.0992L24.8258 56.6442C24.1388 55.0913 22.593 54.3581 20.8755 54.3581C19.3727 54.3581 18.2564 55.0913 18.2564 56.2128C18.2564 59.6636 29.9353 56.903 29.9353 64.926C29.9353 69.2394 25.7704 72 20.9185 72Z" fill="white"/>
<path d="M42.8574 71.9569C36.331 71.9569 31.3502 66.867 31.3502 60.6557C31.3502 54.4875 36.3739 49.3976 42.8574 49.3976C49.4268 49.3976 54.4076 54.5306 54.4076 60.6557C54.4076 66.867 49.3839 71.9569 42.8574 71.9569ZM42.8574 66.22C45.9918 66.22 48.3105 63.7182 48.3105 60.6988C48.3105 57.6794 45.9918 55.1776 42.8574 55.1776C39.723 55.1776 37.4473 57.6794 37.4473 60.6988C37.4473 63.7182 39.723 66.22 42.8574 66.22Z" fill="white"/>
<path d="M68.2525 72C61.6401 72 56.7453 67.2121 56.7453 60.7419V40.21H62.8424V51.4249C64.4311 50.2172 66.4491 49.4407 68.596 49.4407C75.2083 49.4407 79.7597 54.0992 79.7597 60.7419C79.7597 66.9101 74.8219 72 68.2525 72ZM68.2525 66.22C71.3869 66.22 73.6626 63.7613 73.6626 60.7419C73.6626 57.7225 71.3869 55.2207 68.2525 55.2207C65.1181 55.2207 62.8424 57.7225 62.8424 60.7419C62.8424 63.7613 65.1181 66.22 68.2525 66.22Z" fill="white"/>
<path d="M92.549 71.9569C86.0225 71.9569 81.0418 66.867 81.0418 60.6557C81.0418 54.4875 86.0654 49.3976 92.549 49.3976C99.1184 49.3976 104.099 54.5306 104.099 60.6557C104.099 66.867 99.0754 71.9569 92.549 71.9569ZM92.549 66.22C95.6834 66.22 98.002 63.7182 98.002 60.6988C98.002 57.6794 95.6834 55.1776 92.549 55.1776C89.4146 55.1776 87.1389 57.6794 87.1389 60.6988C87.1389 63.7182 89.4146 66.22 92.549 66.22Z" fill="white"/>
<path d="M116.871 71.9569C110.344 71.9569 105.363 66.867 105.363 60.6557C105.363 54.4875 110.387 49.3976 116.871 49.3976C123.44 49.3976 128.421 54.5306 128.421 60.6557C128.421 66.867 123.397 71.9569 116.871 71.9569ZM116.871 66.22C120.005 66.22 122.324 63.7182 122.324 60.6988C122.324 57.6794 120.005 55.1776 116.871 55.1776C113.736 55.1776 111.461 57.6794 111.461 60.6988C111.461 63.7182 113.736 66.22 116.871 66.22Z" fill="white"/>
<path d="M141.836 55.3933C138.401 55.3933 136.856 58.197 136.856 61.4752V71.3961H130.758V60.7419C130.758 54.5306 134.408 49.4407 141.836 49.4407C149.264 49.4407 153 54.4874 153 60.7419V71.3961H146.903V61.4752C146.903 58.197 145.314 55.3933 141.836 55.3933Z" fill="white"/>
</svg>
