<svg width="24" height="24" viewBox="0 0 24 24" fill="currentColor" xmlns="http://www.w3.org/2000/svg">
<path d="M3 18.0003C3 17.2644 3.36976 16.6579 3.83594 16.2044C4.2995 15.7534 4.91988 15.3874 5.60938 15.095C6.1178 14.8794 6.70524 15.1169 6.9209 15.6253C7.13652 16.1337 6.89903 16.7211 6.39062 16.9368C5.83515 17.1724 5.45564 17.4189 5.23047 17.638C5.00804 17.8544 5 17.9761 5 18.0003C5.0001 18.0268 5.01163 18.1706 5.29199 18.4192C5.5727 18.6681 6.03609 18.938 6.69434 19.1848C8.0035 19.6757 9.87916 20.0003 12 20.0003C14.1208 20.0003 15.9965 19.6757 17.3057 19.1848C17.9639 18.938 18.4273 18.6681 18.708 18.4192C18.9884 18.1706 18.9999 18.0268 19 18.0003C19 17.9756 18.9918 17.854 18.7695 17.638C18.6006 17.4738 18.3451 17.2938 17.9932 17.1145L17.6094 16.9358L17.5166 16.8919C17.0726 16.6476 16.8778 16.1017 17.0801 15.6253C17.296 15.117 17.8824 14.8801 18.3906 15.096C19.0794 15.3886 19.7005 15.7528 20.1641 16.2034C20.6306 16.6568 21 17.2639 21 18.0003C20.9999 18.803 20.5628 19.4484 20.0352 19.9163C19.5062 20.3852 18.7973 20.7618 18.0078 21.0579C16.4215 21.6527 14.2971 22.0003 12 22.0003C9.7029 22.0003 7.57851 21.6527 5.99219 21.0579C5.20271 20.7618 4.49381 20.3852 3.96484 19.9163C3.43716 19.4484 3.00014 18.803 3 18.0003Z" fill="currentColor"/>
<path fill-rule="evenodd" clip-rule="evenodd" d="M12.738 17.675L12.743 17.67L12.755 17.656L12.8 17.606L12.966 17.42C13.7972 16.4739 14.5808 15.487 15.314 14.463C15.956 13.563 16.614 12.543 17.115 11.53C17.605 10.54 18 9.451 18 8.444C18 4.871 15.382 2 12 2C8.618 2 6 4.87 6 8.444C6 9.451 6.395 10.54 6.885 11.53C7.386 12.543 8.045 13.563 8.685 14.463C9.46722 15.5544 10.3067 16.6035 11.2 17.606L11.245 17.656L11.257 17.67L11.262 17.675C11.3557 17.7775 11.4697 17.8593 11.5968 17.9153C11.7238 17.9713 11.8612 18.0002 12 18.0002C12.1388 18.0002 12.2762 17.9713 12.4032 17.9153C12.5303 17.8593 12.6443 17.7775 12.738 17.675ZM12 6C11.4696 6 10.9609 6.21071 10.5858 6.58579C10.2107 6.96086 10 7.46957 10 8C10 8.53043 10.2107 9.03914 10.5858 9.41421C10.9609 9.78929 11.4696 10 12 10C12.5304 10 13.0391 9.78929 13.4142 9.41421C13.7893 9.03914 14 8.53043 14 8C14 7.46957 13.7893 6.96086 13.4142 6.58579C13.0391 6.21071 12.5304 6 12 6Z" fill="currentColor"/>
</svg>
