<svg width="24" height="24" viewBox="0 0 24 24" fill="currentColor" xmlns="http://www.w3.org/2000/svg">
<path d="M3 18.0003C3 17.2644 3.36976 16.6579 3.83594 16.2044C4.2995 15.7534 4.91988 15.3874 5.60938 15.095C6.1178 14.8794 6.70524 15.1169 6.9209 15.6253C7.13652 16.1337 6.89903 16.7211 6.39062 16.9368C5.83515 17.1724 5.45564 17.4189 5.23047 17.638C5.00804 17.8544 5 17.9761 5 18.0003C5.0001 18.0268 5.01163 18.1706 5.29199 18.4192C5.5727 18.6681 6.03609 18.938 6.69434 19.1848C8.0035 19.6757 9.87916 20.0003 12 20.0003C14.1208 20.0003 15.9965 19.6757 17.3057 19.1848C17.9639 18.938 18.4273 18.6681 18.708 18.4192C18.9884 18.1706 18.9999 18.0268 19 18.0003C19 17.9756 18.9918 17.854 18.7695 17.638C18.6006 17.4738 18.3451 17.2938 17.9932 17.1145L17.6094 16.9358L17.5166 16.8919C17.0726 16.6476 16.8778 16.1017 17.0801 15.6253C17.296 15.117 17.8824 14.8801 18.3906 15.096C19.0794 15.3886 19.7005 15.7528 20.1641 16.2034C20.6306 16.6568 21 17.2639 21 18.0003C20.9999 18.803 20.5628 19.4484 20.0352 19.9163C19.5062 20.3852 18.7973 20.7618 18.0078 21.0579C16.4215 21.6527 14.2971 22.0003 12 22.0003C9.7029 22.0003 7.57851 21.6527 5.99219 21.0579C5.20271 20.7618 4.49381 20.3852 3.96484 19.9163C3.43716 19.4484 3.00014 18.803 3 18.0003Z" fill="currentColor"/>
<path d="M12.7373 17.6748C12.5479 17.8818 12.2806 18 12 18C11.7194 18 11.4521 17.8818 11.2627 17.6748L12 17L12.7373 17.6748ZM16 8.44434C16 5.83352 14.1402 4 12 4C9.85968 4 8 5.83264 8 8.44434C8.0001 8.98413 8.23002 9.73798 8.67773 10.6426C9.11388 11.5237 9.70621 12.4481 10.3145 13.3008C10.9202 14.15 11.5277 14.9088 11.9854 15.4561C11.99 15.4616 11.9954 15.4672 12 15.4727C12.0046 15.4672 12.01 15.4616 12.0146 15.4561C12.4723 14.9088 13.0798 14.15 13.6855 13.3008C14.2938 12.4481 14.8861 11.5237 15.3223 10.6426C15.77 9.73798 15.9999 8.98413 16 8.44434ZM18 8.44434C17.9999 9.45088 17.6049 10.54 17.1152 11.5293C16.6139 12.5422 15.9561 13.5634 15.3145 14.4629C14.6704 15.3658 14.0277 16.1655 13.5479 16.7393C13.3075 17.0266 13.1073 17.2591 12.9658 17.4199C12.8951 17.5004 12.8386 17.5633 12.7998 17.6064C12.7805 17.6279 12.7653 17.6447 12.7549 17.6562C12.7497 17.6619 12.746 17.6668 12.7432 17.6699L12.7383 17.6748L12 17L11.2617 17.6748L11.2568 17.6699C11.254 17.6668 11.2503 17.6619 11.2451 17.6562C11.2347 17.6447 11.2195 17.6279 11.2002 17.6064C11.1614 17.5633 11.1049 17.5004 11.0342 17.4199C10.8927 17.2591 10.6925 17.0266 10.4521 16.7393C9.97233 16.1655 9.32961 15.3658 8.68555 14.4629C8.04391 13.5634 7.38608 12.5422 6.88477 11.5293C6.39515 10.54 6.00009 9.45088 6 8.44434C6 4.87003 8.61832 2 12 2C15.3818 2 18 4.87115 18 8.44434Z" fill="currentColor"/>
<path d="M10 8C10 6.89543 10.8954 6 12 6C13.1046 6 14 6.89543 14 8C14 9.10457 13.1046 10 12 10C10.8954 10 10 9.10457 10 8Z" fill="currentColor"/>
</svg>
