<svg width="24" height="24" viewBox="0 0 24 24" fill="currentColor" xmlns="http://www.w3.org/2000/svg">
<path fill-rule="evenodd" clip-rule="evenodd" d="M12 21L12.708 21.706C12.6151 21.7993 12.5047 21.8733 12.3831 21.9238C12.2615 21.9743 12.1312 22.0003 11.9995 22.0003C11.8678 22.0003 11.7375 21.9743 11.6159 21.9238C11.4943 21.8733 11.3839 21.7993 11.291 21.706L11.285 21.699L11.268 21.682L11.206 21.619C10.8535 21.2558 10.5068 20.8871 10.166 20.513C9.31072 19.5752 8.49146 18.6052 7.71 17.605C6.818 16.455 5.906 15.155 5.213 13.871C4.535 12.612 4 11.248 4 10C4 5.461 7.592 2 12 2C16.408 2 20 5.461 20 10C20 11.248 19.465 12.612 18.787 13.87C18.094 15.156 17.183 16.455 16.29 17.605C15.1968 19.0041 14.0298 20.344 12.794 21.619L12.732 21.682L12.715 21.699L12.709 21.705L12 21ZM13 7C13 6.73478 12.8946 6.48043 12.7071 6.29289C12.5196 6.10536 12.2652 6 12 6C11.7348 6 11.4804 6.10536 11.2929 6.29289C11.1054 6.48043 11 6.73478 11 7V9H9C8.73478 9 8.48043 9.10536 8.29289 9.29289C8.10536 9.48043 8 9.73478 8 10C8 10.2652 8.10536 10.5196 8.29289 10.7071C8.48043 10.8946 8.73478 11 9 11H11V13C11 13.2652 11.1054 13.5196 11.2929 13.7071C11.4804 13.8946 11.7348 14 12 14C12.2652 14 12.5196 13.8946 12.7071 13.7071C12.8946 13.5196 13 13.2652 13 13V11H15C15.2652 11 15.5196 10.8946 15.7071 10.7071C15.8946 10.5196 16 10.2652 16 10C16 9.73478 15.8946 9.48043 15.7071 9.29289C15.5196 9.10536 15.2652 9 15 9H13V7Z" fill="currentColor"/>
</svg>
