<svg width="24" height="24" viewBox="0 0 24 24" fill="currentColor" xmlns="http://www.w3.org/2000/svg">
<path d="M12.708 21.7061C12.5204 21.8942 12.2657 22 12 22C11.7343 22 11.4796 21.8942 11.292 21.7061L12 21L12.708 21.7061ZM18 10C18 6.58655 15.324 4 12 4C8.67597 4 6 6.58655 6 10C6 10.7402 6.33944 11.7452 6.97363 12.9219C7.59348 14.072 8.43278 15.2743 9.29004 16.3779C10.1443 17.4777 11.001 18.4593 11.6455 19.167C11.7716 19.3055 11.8921 19.4309 12 19.5469C12.1079 19.4309 12.2284 19.3055 12.3545 19.167C12.999 18.4593 13.8557 17.4777 14.71 16.3779C15.5672 15.2743 16.4065 14.072 17.0264 12.9219C17.6606 11.7452 18 10.7402 18 10ZM11 13V11H9C8.44772 11 8 10.5523 8 10C8 9.44772 8.44772 9 9 9H11V7C11 6.44772 11.4477 6 12 6C12.5523 6 13 6.44772 13 7V9H15C15.5523 9 16 9.44772 16 10C16 10.5523 15.5523 11 15 11H13V13C13 13.5523 12.5523 14 12 14C11.4477 14 11 13.5523 11 13ZM20 10C20 11.2477 19.4644 12.6116 18.7861 13.8701C18.0935 15.1552 17.1828 16.4552 16.29 17.6045C15.3945 18.7575 14.501 19.7802 13.833 20.5137C13.4985 20.8809 13.2189 21.1767 13.0225 21.3818C12.9245 21.4842 12.8475 21.5644 12.7939 21.6191C12.7672 21.6465 12.7458 21.6681 12.7314 21.6826L12.709 21.7051V21.7061L12 21L11.291 21.7061V21.7051L11.2686 21.6826C11.2542 21.6681 11.2328 21.6465 11.2061 21.6191C11.1525 21.5644 11.0755 21.4842 10.9775 21.3818C10.7811 21.1767 10.5015 20.8809 10.167 20.5137C9.49904 19.7802 8.60555 18.7575 7.70996 17.6045C6.81725 16.4552 5.9065 15.1552 5.21387 13.8701C4.53562 12.6116 4 11.2477 4 10C4 5.46145 7.59203 2 12 2C16.408 2 20 5.46145 20 10Z" fill="currentColor"/>
</svg>
