<svg width="24" height="24" viewBox="0 0 24 24" fill="currentColor" xmlns="http://www.w3.org/2000/svg">
<path d="M8.00977 11C8.56205 11 9.00977 11.4477 9.00977 12C9.00977 12.5523 8.56205 13 8.00977 13H8C7.44772 13 7 12.5523 7 12C7 11.4477 7.44772 11 8 11H8.00977ZM12.0098 11C12.5621 11 13.0098 11.4477 13.0098 12C13.0098 12.5523 12.5621 13 12.0098 13H12C11.4477 13 11 12.5523 11 12C11 11.4477 11.4477 11 12 11H12.0098ZM16.0098 11C16.5621 11 17.0098 11.4477 17.0098 12C17.0098 12.5523 16.5621 13 16.0098 13H16C15.4477 13 15 12.5523 15 12C15 11.4477 15.4477 11 16 11H16.0098Z" fill="currentColor"/>
</svg>
