<svg width="24" height="24" viewBox="0 0 24 24" fill="currentColor" xmlns="http://www.w3.org/2000/svg">
<path d="M20 16V20C17.242 20 14.93 19.505 13 18.675C9.159 17.023 6.824 14.045 5.5 11C4.4 8.472 4 5.898 4 4H8L9 8L5.5 11C6.824 14.045 9.159 17.023 13 18.675L16 15L20 16Z" fill="currentColor"/>
<path d="M8 3C8.45887 3 8.85843 3.31265 8.96973 3.75781L9.96973 7.75781C10.0615 8.12521 9.93792 8.51234 9.65039 8.75879L6.72559 11.2646C7.92066 13.7038 9.82135 15.9973 12.7158 17.4414L15.2256 14.3672L15.3242 14.2627C15.5693 14.038 15.9135 13.9482 16.2422 14.0303L20.2422 15.0303C20.6874 15.1416 21 15.5411 21 16V20C21 20.5523 20.5523 21 20 21C17.1202 21 14.6716 20.4827 12.6045 19.5938C8.47786 17.8188 5.98329 14.6196 4.58301 11.3994L4.37402 10.8984C3.37207 8.3972 3 5.89583 3 4C3 3.44772 3.44772 3 4 3H8ZM14.6572 18.2256C15.9305 18.6324 17.3708 18.8994 19 18.9766V16.7803L16.373 16.123L14.6572 18.2256ZM5.03809 5C5.12983 6.28032 5.398 7.78411 5.92188 9.32129L7.87988 7.64258L7.21973 5H5.03809Z" fill="currentColor"/>
</svg>
