<svg width="24" height="24" viewBox="0 0 24 24" fill="currentColor" xmlns="http://www.w3.org/2000/svg">
<path d="M20 12C20 7.58172 16.4183 4 12 4C7.58172 4 4 7.58172 4 12C4 16.4183 7.58172 20 12 20C16.4183 20 20 16.4183 20 12ZM22 12C22 17.5228 17.5228 22 12 22C6.47715 22 2 17.5228 2 12C2 6.47715 6.47715 2 12 2C17.5228 2 22 6.47715 22 12Z" fill="currentColor"/>
<path d="M12.0098 13.9999C12.5621 13.9999 13.0098 14.4477 13.0098 14.9999C13.0098 15.5522 12.5621 15.9999 12.0098 15.9999H12C11.4477 15.9999 11 15.5522 11 14.9999C11 14.4477 11.4477 13.9999 12 13.9999H12.0098ZM9 9.99994C9 9.40659 9.17622 8.82629 9.50586 8.33294C9.83542 7.83987 10.3037 7.45549 10.8516 7.22845C11.3996 7.00143 12.0031 6.94188 12.585 7.05755C13.1669 7.17331 13.7015 7.45929 14.1211 7.87884C14.5407 8.2984 14.8266 8.83303 14.9424 9.41498C15.0581 9.99683 14.9985 10.6003 14.7715 11.1484C14.5444 11.6963 14.1601 12.1645 13.667 12.4941C13.1736 12.8237 12.5933 12.9999 12 12.9999C11.4477 12.9999 11 12.5522 11 11.9999C11 11.4477 11.4477 10.9999 12 10.9999C12.1978 10.9999 12.3912 10.9409 12.5557 10.831C12.72 10.7211 12.8482 10.5653 12.9238 10.3827C12.9995 10.2 13.0191 9.99861 12.9805 9.80462C12.9418 9.61075 12.8468 9.43269 12.707 9.29291C12.5672 9.15312 12.3892 9.05809 12.1953 9.01947C12.0013 8.98088 11.7999 9.00042 11.6172 9.07611C11.4346 9.15176 11.2788 9.27999 11.1689 9.44427C11.0591 9.60872 11 9.80216 11 9.99994C11 10.5522 10.5523 10.9999 10 10.9999C9.44772 10.9999 9 10.5522 9 9.99994Z" fill="currentColor"/>
</svg>
