<svg width="24" height="24" viewBox="0 0 24 24" fill="currentColor" xmlns="http://www.w3.org/2000/svg">
<path d="M16.293 2.29289C16.6835 1.90237 17.3165 1.90237 17.707 2.29289L20.707 5.29289C21.0975 5.68342 21.0975 6.31643 20.707 6.70695L17.707 9.70695C17.3165 10.0975 16.6835 10.0975 16.293 9.70695C15.9024 9.31643 15.9024 8.68342 16.293 8.29289L17.5859 6.99992H11.5C10.2144 6.99992 8.95758 7.3814 7.88866 8.09563C6.81984 8.80985 5.98705 9.82498 5.49511 11.0126C5.00314 12.2003 4.87419 13.5076 5.12499 14.7685C5.37586 16.0292 5.99536 17.1877 6.90429 18.0966C7.81314 19.0053 8.97097 19.6241 10.2314 19.8749C11.4923 20.1257 12.7996 19.9968 13.9873 19.5048C15.1749 19.0129 16.1901 18.1801 16.9043 17.1113C17.6185 16.0423 18 14.7855 18 13.4999C18 12.9476 18.4477 12.4999 19 12.4999C19.5523 12.4999 20 12.9476 20 13.4999C20 15.1811 19.5014 16.8248 18.5674 18.2226C17.6334 19.6202 16.3059 20.7091 14.7529 21.3525C13.1998 21.9958 11.4906 22.1648 9.84179 21.8368C8.19295 21.5089 6.678 20.6994 5.48925 19.5107C4.3005 18.3219 3.49105 16.807 3.16308 15.1581C2.83513 13.5093 3.00412 11.8001 3.64745 10.247C4.29077 8.69403 5.37972 7.36647 6.77733 6.43254C8.17515 5.49855 9.81885 4.99992 11.5 4.99992H17.5859L16.293 3.70695L16.2246 3.63078C15.9043 3.23801 15.9268 2.65901 16.293 2.29289Z" fill="currentColor"/>
</svg>
