<svg width="24" height="24" viewBox="0 0 24 24" fill="currentColor" xmlns="http://www.w3.org/2000/svg">
<path d="M19.9999 12C19.9999 10.9495 19.7936 9.90905 19.3915 8.93848C18.9895 7.96786 18.4 7.08565 17.6572 6.34277C16.9143 5.59996 16.032 5.0114 15.0615 4.60938C14.0909 4.20733 13.0505 4 11.9999 4C10.9494 4.00001 9.90901 4.20734 8.93842 4.60938C8.27744 4.88318 7.65845 5.24479 7.09564 5.68164L18.3173 16.9033C18.7542 16.3405 19.1177 15.7225 19.3915 15.0615C19.7935 14.091 19.9999 13.0505 19.9999 12ZM3.99994 12C3.99994 13.0506 4.20727 14.0909 4.60931 15.0615C5.01134 16.0321 5.5999 16.9144 6.34271 17.6572C7.08559 18.4001 7.9678 18.9896 8.93842 19.3916C9.90899 19.7936 10.9494 20 11.9999 20C13.0505 20 14.0909 19.7936 15.0615 19.3916C15.7225 19.1178 16.3404 18.7542 16.9033 18.3174L5.68158 7.0957C5.24473 7.65851 4.88312 8.2775 4.60931 8.93848C4.20728 9.90907 3.99995 10.9494 3.99994 12ZM21.9999 12C21.9999 13.3132 21.7417 14.6139 21.2392 15.8271C20.7366 17.0404 19.9998 18.1427 19.0712 19.0713C18.1427 19.9999 17.0403 20.7367 15.8271 21.2393C14.6138 21.7418 13.3132 22 11.9999 22C10.6867 22 9.38604 21.7418 8.17279 21.2393C6.9596 20.7367 5.8572 19.9998 4.92865 19.0713C4.00009 18.1427 3.26322 17.0404 2.76068 15.8271C2.25813 14.6139 1.99994 13.3132 1.99994 12C1.99995 10.6868 2.25814 9.3861 2.76068 8.17285C3.26323 6.95964 4.00009 5.85727 4.92865 4.92871C5.85721 4.00015 6.95958 3.26329 8.17279 2.76074C9.38604 2.2582 10.6867 2.00001 11.9999 2C13.3132 2 14.6138 2.25819 15.8271 2.76074C17.0403 3.26328 18.1427 4.00016 19.0712 4.92871C19.9998 5.85726 20.7366 6.95966 21.2392 8.17285C21.7417 9.3861 21.9999 10.6868 21.9999 12Z" fill="currentColor"/>
</svg>
