<svg width="24" height="24" viewBox="0 0 24 24" fill="currentColor" xmlns="http://www.w3.org/2000/svg">
<path d="M17.0006 10.9998C17.0006 10.2119 16.8451 9.43174 16.5436 8.70386C16.2421 7.97593 15.7999 7.31472 15.2428 6.75757C14.6857 6.20047 14.0244 5.75833 13.2965 5.45679C12.5685 5.15524 11.7876 4.99976 10.9996 4.99976C10.2118 4.9998 9.43164 5.15529 8.70375 5.45679C7.9758 5.75833 7.31462 6.20041 6.75746 6.75757C5.63226 7.88277 4.99974 9.40849 4.99965 10.9998C4.99965 12.5911 5.63218 14.1176 6.75746 15.2429C7.88265 16.368 9.40845 17.0006 10.9996 17.0007C12.591 17.0007 14.1175 16.3682 15.2428 15.2429C15.7999 14.6858 16.2421 14.0245 16.5436 13.2966C16.8451 12.5686 17.0006 11.7877 17.0006 10.9998ZM19.0006 10.9998C19.0006 12.0503 18.7932 13.0907 18.3913 14.0613C18.1174 14.7223 17.7549 15.3412 17.318 15.9041L20.7067 19.2927C21.0972 19.6832 21.0972 20.3163 20.7067 20.7068C20.3162 21.0973 19.6831 21.0973 19.2926 20.7068L15.903 17.3171C14.5073 18.4005 12.7852 19.0007 10.9996 19.0007C8.87795 19.0006 6.8427 18.1573 5.34242 16.657C3.84229 15.1567 2.99965 13.1214 2.99965 10.9998C2.99974 8.87806 3.84215 6.8428 5.34242 5.34253C6.08523 4.59972 6.96762 4.01118 7.93813 3.60913C8.90866 3.20712 9.94915 2.9998 10.9996 2.99976C12.0502 2.99976 13.0906 3.20714 14.0612 3.60913C15.0317 4.01112 15.914 4.5998 16.6569 5.34253C17.3997 6.08536 17.9892 6.96769 18.3913 7.93823C18.7933 8.90877 19.0006 9.94926 19.0006 10.9998Z" fill="currentColor"/>
</svg>
