<svg width="24" height="24" viewBox="0 0 24 24" fill="currentColor" xmlns="http://www.w3.org/2000/svg">
<path d="M2.34473 2.24407C2.65027 1.97918 3.08557 1.92455 3.44726 2.1054L21.4473 11.1054C21.786 11.2748 22 11.6212 22 11.9999C22 12.3787 21.786 12.7251 21.4473 12.8945L3.44726 21.8945C3.08557 22.0753 2.65027 22.0207 2.34473 21.7558C2.03917 21.4908 1.92385 21.0672 2.05176 20.6835L4.94629 11.9999L2.05176 3.31634C1.92385 2.93263 2.03917 2.50907 2.34473 2.24407ZM6.7207 10.9999H12C12.5523 10.9999 13 11.4476 13 11.9999C13 12.5522 12.5523 12.9999 12 12.9999H6.7207L4.71094 19.0253L18.7637 11.9999L4.71094 4.97356L6.7207 10.9999Z" fill="currentColor"/>
</svg>
