<svg width="24" height="24" viewBox="0 0 24 24" fill="currentColor" xmlns="http://www.w3.org/2000/svg">
<path fill-rule="evenodd" clip-rule="evenodd" d="M9.02396 2.783C9.07332 2.56094 9.19692 2.36234 9.37436 2.21999C9.5518 2.07764 9.77247 2.00004 9.99996 2H14C14.2274 2.00004 14.4481 2.07764 14.6256 2.21999C14.803 2.36234 14.9266 2.56094 14.976 2.783L15.416 4.764C15.816 4.954 16.196 5.174 16.556 5.424L18.494 4.814C18.711 4.74577 18.9448 4.75356 19.1567 4.8361C19.3687 4.91864 19.5462 5.07099 19.66 5.268L21.66 8.732C21.7737 8.92904 21.8169 9.159 21.7824 9.3839C21.7478 9.6088 21.6376 9.81519 21.47 9.969L19.973 11.342C20.0091 11.7799 20.0091 12.2201 19.973 12.658L21.47 14.031C21.6376 14.1848 21.7478 14.3912 21.7824 14.6161C21.8169 14.841 21.7737 15.071 21.66 15.268L19.66 18.732C19.5462 18.929 19.3687 19.0814 19.1567 19.1639C18.9448 19.2464 18.711 19.2542 18.494 19.186L16.557 18.576C16.197 18.826 15.817 19.046 15.417 19.236L14.977 21.216C14.9278 21.4384 14.8041 21.6374 14.6264 21.7799C14.4488 21.9225 14.2277 22.0001 14 22H9.99996C9.77247 22 9.5518 21.9224 9.37436 21.78C9.19692 21.6377 9.07332 21.4391 9.02396 21.217L8.58396 19.236C8.18396 19.046 7.80396 18.826 7.44395 18.576L5.50596 19.186C5.28895 19.2542 5.05516 19.2464 4.84317 19.1639C4.63119 19.0814 4.45369 18.929 4.33996 18.732L2.33995 15.268C2.22617 15.071 2.18298 14.841 2.21753 14.6161C2.25207 14.3912 2.36228 14.1848 2.52995 14.031L4.02696 12.658C3.99081 12.2201 3.99081 11.7799 4.02696 11.342L2.52995 9.97C2.36228 9.81619 2.25207 9.6098 2.21753 9.3849C2.18298 9.16 2.22617 8.93004 2.33995 8.733L4.33996 5.269C4.45369 5.07199 4.63119 4.91964 4.84317 4.8371C5.05516 4.75456 5.28895 4.74677 5.50596 4.815L7.44296 5.425C7.80296 5.175 8.18296 4.955 8.58296 4.765L9.02296 2.785L9.02396 2.783ZM12 15C12.7956 15 13.5587 14.6839 14.1213 14.1213C14.6839 13.5587 15 12.7956 15 12C15 11.2044 14.6839 10.4413 14.1213 9.87868C13.5587 9.31607 12.7956 9 12 9C11.2043 9 10.4412 9.31607 9.87863 9.87868C9.31603 10.4413 8.99996 11.2044 8.99996 12C8.99996 12.7956 9.31603 13.5587 9.87863 14.1213C10.4412 14.6839 11.2043 15 12 15Z" fill="currentColor"/>
</svg>
