<svg width="24" height="24" viewBox="0 0 24 24" fill="currentColor" xmlns="http://www.w3.org/2000/svg">
<path d="M13.9999 2L14.1728 2.01465C14.5657 2.08335 14.8876 2.38297 14.9765 2.7832L15.416 4.76562C15.813 4.95308 16.1937 5.17289 16.5546 5.42285L18.4941 4.81348L18.663 4.77539C19.0583 4.72299 19.4551 4.91173 19.6601 5.2666L21.6601 8.73145C21.8941 9.13721 21.8148 9.65102 21.4697 9.96777L19.9726 11.3408C20.0088 11.7786 20.0087 12.2184 19.9726 12.6562L21.4697 14.0303C21.8148 14.347 21.8942 14.8608 21.6601 15.2666L19.6601 18.7314C19.4257 19.1371 18.941 19.3251 18.4941 19.1846L16.5556 18.5742C16.1946 18.8247 15.8141 19.0455 15.4169 19.2334L14.9765 21.2168C14.8748 21.6744 14.4687 22 13.9999 22H9.99995C9.53125 22 9.12504 21.6743 9.02338 21.2168L8.58295 19.2334C8.18596 19.0459 7.80519 18.8262 7.44428 18.5762L5.5058 19.1865C5.05889 19.327 4.57414 19.1391 4.33979 18.7334L2.33979 15.2686C2.10578 14.8628 2.18509 14.349 2.53022 14.0322L4.02631 12.6582C3.99023 12.2204 3.99017 11.7805 4.02631 11.3428L2.52924 9.96875C2.18438 9.65197 2.10585 9.13804 2.33979 8.73242L4.33979 5.26758C4.57414 4.86192 5.0589 4.67394 5.5058 4.81445L7.44428 5.42383C7.80524 5.17367 8.18589 4.95326 8.58295 4.76562L9.02338 2.7832L9.07514 2.61816C9.22725 2.24921 9.58973 2.00002 9.99995 2H13.9999ZM10.4267 5.69629C10.3546 6.02158 10.1247 6.2897 9.8144 6.41113C9.25205 6.63119 8.72652 6.93544 8.25483 7.3125C7.99465 7.52048 7.64775 7.58435 7.33002 7.48438L5.67084 6.96191L4.4726 9.03711L5.75483 10.2148C5.9996 10.4399 6.11611 10.7718 6.06635 11.1006C5.97584 11.6972 5.97584 12.3048 6.06635 12.9014C6.11617 13.2305 5.99908 13.563 5.75385 13.7881L4.4726 14.9629L5.67084 17.0381L7.33002 16.5166L7.45014 16.4863C7.73267 16.4346 8.02627 16.5068 8.25385 16.6885C8.66639 17.0181 9.1209 17.2914 9.60444 17.502L9.81342 17.5889L9.92573 17.6406C10.1784 17.7776 10.3614 18.0184 10.4247 18.3027L10.8027 20H13.1972L13.5751 18.3027L13.6093 18.1846C13.7057 17.914 13.9144 17.6953 14.1855 17.5889C14.7476 17.3685 15.2737 17.0648 15.7451 16.6875L15.8466 16.6162C16.0916 16.4657 16.3918 16.4263 16.6699 16.5137L18.3281 17.0361L19.5263 14.9609L18.246 13.7861C18.0008 13.5611 17.8837 13.2285 17.9335 12.8994C18.0241 12.3028 18.0241 11.6952 17.9335 11.0986C17.8837 10.7696 18.0008 10.437 18.246 10.2119L19.5263 9.03613L18.3281 6.96094L16.6699 7.4834C16.3524 7.58326 16.0061 7.51918 15.746 7.31152C15.2745 6.93482 14.7485 6.63101 14.1865 6.41113C13.8765 6.28979 13.6475 6.02217 13.5751 5.69727L13.1972 4H10.8027L10.4267 5.69629Z" fill="currentColor"/>
<path d="M14 12C14 10.8954 13.1046 10 12 10C10.8954 10 10 10.8954 10 12C10 13.1046 10.8954 14 12 14C13.1046 14 14 13.1046 14 12ZM16 12C16 14.2091 14.2091 16 12 16C9.79086 16 8 14.2091 8 12C8 9.79086 9.79086 8 12 8C14.2091 8 16 9.79086 16 12Z" fill="currentColor"/>
</svg>
