<svg width="24" height="24" viewBox="0 0 24 24" fill="currentColor" xmlns="http://www.w3.org/2000/svg">
<path d="M12.0003 1.99902C12.1867 1.9991 12.3694 2.05109 12.5277 2.14941C12.6861 2.24796 12.8143 2.38932 12.8968 2.55664L15.3089 7.44531L20.7025 8.22852C20.8871 8.25532 21.0608 8.3339 21.2035 8.4541C21.3461 8.57441 21.4525 8.73264 21.5101 8.91016C21.5677 9.08758 21.5744 9.2779 21.5296 9.45898C21.4848 9.63983 21.3906 9.80452 21.2572 9.93457L17.3548 13.7402L18.2747 19.1123C18.3061 19.296 18.2854 19.4846 18.2152 19.6572C18.1449 19.8298 18.028 19.9793 17.8773 20.0889C17.7265 20.1985 17.5476 20.2638 17.3617 20.2773C17.1758 20.2908 16.9896 20.2525 16.8246 20.166L12.0003 17.6299L7.17514 20.166C7.01013 20.2528 6.82397 20.2917 6.63803 20.2783C6.45193 20.2649 6.27238 20.1995 6.12143 20.0898C5.97076 19.9803 5.85382 19.8307 5.78354 19.6582C5.71325 19.4855 5.69253 19.2961 5.72397 19.1123L6.64584 13.7402L2.74154 9.93457C2.60804 9.80435 2.51377 9.63908 2.46908 9.45801C2.42442 9.27683 2.43089 9.08663 2.48861 8.90918C2.54632 8.73187 2.65269 8.57428 2.79525 8.4541C2.93807 8.33386 3.11243 8.25518 3.29721 8.22852L8.69076 7.44531L11.1029 2.55664C11.1854 2.38929 11.3136 2.24797 11.472 2.14941C11.6304 2.05096 11.8138 1.99902 12.0003 1.99902ZM9.87143 9.32617L5.00033 9.96582L8.556 13.2783L7.67416 18L12.0003 15.7217L16.3265 18L15.4437 13.2783L19.0003 9.96582L14.1283 9.32617L12.0003 5L9.87143 9.32617Z" fill="currentColor"/>
</svg>
