<svg width="24" height="24" viewBox="0 0 24 24" fill="currentColor" xmlns="http://www.w3.org/2000/svg">
<path fill-rule="evenodd" clip-rule="evenodd" d="M12.897 2.55699C12.8145 2.38953 12.6867 2.24851 12.5282 2.1499C12.3696 2.05129 12.1867 1.99902 12 1.99902C11.8133 1.99902 11.6303 2.05129 11.4718 2.1499C11.3133 2.24851 11.1855 2.38953 11.103 2.55699L8.69098 7.44499L3.29698 8.22899C3.1122 8.25566 2.93857 8.33352 2.79575 8.45377C2.65294 8.57401 2.54663 8.73184 2.48888 8.90938C2.43112 9.08691 2.42421 9.27707 2.46895 9.45833C2.51368 9.63959 2.60826 9.80471 2.74198 9.93499L6.64598 13.74L5.72398 19.112C5.69247 19.2959 5.71304 19.4849 5.78336 19.6578C5.85368 19.8306 5.97095 19.9803 6.12191 20.0899C6.27287 20.1996 6.45149 20.2648 6.63759 20.2783C6.82369 20.2917 7.00983 20.2528 7.17498 20.166L12 17.63L16.825 20.166C16.9901 20.2525 17.1761 20.2912 17.3621 20.2776C17.548 20.2641 17.7264 20.1988 17.8772 20.0892C18.028 19.9796 18.1452 19.83 18.2155 19.6573C18.2857 19.4846 18.3064 19.2958 18.275 19.112L17.355 13.74L21.257 9.93499C21.3907 9.80477 21.4853 9.63974 21.5301 9.45855C21.5748 9.27737 21.568 9.08727 21.5104 8.90975C21.4527 8.73224 21.3466 8.5744 21.2039 8.4541C21.0612 8.33379 20.8877 8.25581 20.703 8.22899L15.309 7.44499L12.897 2.55699Z" fill="currentColor"/>
</svg>
