<svg width="24" height="24" viewBox="0 0 24 24" fill="currentColor" xmlns="http://www.w3.org/2000/svg">
<path d="M2 11.1719V5C2 4.20435 2.3163 3.44152 2.87891 2.87891C3.44152 2.3163 4.20435 2 5 2H11.1719L11.4688 2.01465C12.1554 2.08297 12.8008 2.3867 13.293 2.87891L21.293 10.8789L21.4922 11.0986C21.9296 11.6325 22.1719 12.3038 22.1719 13C22.1719 13.6962 21.9296 14.3675 21.4922 14.9014L21.293 15.1211L15.1211 21.293C14.5585 21.8554 13.7955 22.1719 13 22.1719C12.3038 22.1719 11.6325 21.9296 11.0986 21.4922L10.8789 21.293L2.87891 13.293C2.3867 12.8008 2.08297 12.1554 2.01465 11.4688L2 11.1719ZM4 11.1719L4.00488 11.2705C4.02764 11.4994 4.12884 11.7148 4.29297 11.8789L12.293 19.8789C12.4805 20.0664 12.7349 20.1719 13 20.1719C13.2651 20.1719 13.5195 20.0664 13.707 19.8789L19.8789 13.707C20.0664 13.5195 20.1719 13.2651 20.1719 13C20.1719 12.7349 20.0664 12.4805 19.8789 12.293L11.8789 4.29297C11.7148 4.12884 11.4994 4.02764 11.2705 4.00488L11.1719 4H5C4.73478 4 4.4805 4.10543 4.29297 4.29297C4.10543 4.4805 4 4.73478 4 5V11.1719Z" fill="currentColor"/>
</svg>
