<svg width="24" height="24" viewBox="0 0 24 24" fill="currentColor" xmlns="http://www.w3.org/2000/svg">
<path fill-rule="evenodd" clip-rule="evenodd" d="M2 5C2 4.20435 2.31607 3.44129 2.87868 2.87868C3.44129 2.31607 4.20435 2 5 2H11.172C11.9672 2.00044 12.7298 2.3166 13.292 2.879L21.292 10.879C21.8544 11.4416 22.1704 12.2045 22.1704 13C22.1704 13.7955 21.8544 14.5584 21.292 15.121L15.122 21.293C14.8434 21.5716 14.5127 21.7927 14.1487 21.9434C13.7847 22.0942 13.3945 22.1719 13.0005 22.1719C12.6065 22.1719 12.2163 22.0942 11.8523 21.9434C11.4883 21.7927 11.1576 21.5716 10.879 21.293L2.879 13.293C2.31635 12.7305 2.00017 11.9676 2 11.172V5ZM7 6C6.73478 6 6.48043 6.10536 6.29289 6.29289C6.10536 6.48043 6 6.73478 6 7C6 7.26522 6.10536 7.51957 6.29289 7.70711C6.48043 7.89464 6.73478 8 7 8C7.26522 8 7.52057 7.89464 7.70811 7.70711C7.89564 7.51957 8.001 7.26522 8.001 7C8.001 6.73478 7.89564 6.48043 7.70811 6.29289C7.52057 6.10536 7.26522 6 7 6Z" fill="currentColor"/>
</svg>
