<svg width="24" height="24" viewBox="0 0 24 24" fill="currentColor" xmlns="http://www.w3.org/2000/svg">
<path d="M9 13C11.2091 13 13 11.2091 13 9C13 6.79086 11.2091 5 9 5C6.79086 5 5 6.79086 5 9C5 11.2091 6.79086 13 9 13Z" fill="currentColor"/>
<path d="M12 9C12 7.34315 10.6569 6 9 6C7.34315 6 6 7.34315 6 9C6 10.6569 7.34315 12 9 12C10.6569 12 12 10.6569 12 9ZM14 9C14 11.7614 11.7614 14 9 14C6.23858 14 4 11.7614 4 9C4 6.23858 6.23858 4 9 4C11.7614 4 14 6.23858 14 9Z" fill="currentColor"/>
<path d="M9 13C5.134 13 2 15.686 2 19H16C16 15.686 12.866 13 9 13Z" fill="currentColor"/>
<path d="M9 12C13.2681 12 17 14.9946 17 19C17 19.5523 16.5523 20 16 20H2C1.44772 20 1 19.5523 1 19C1 14.9946 4.73192 12 9 12ZM9 14C5.98393 14 3.67258 15.8027 3.125 18H14.875C14.3274 15.8027 12.0161 14 9 14Z" fill="currentColor"/>
<path d="M13.2891 4.30179C14.074 4.01599 14.9182 3.93136 15.7442 4.05569C16.5703 4.18006 17.3526 4.50937 18.0186 5.0137C18.6846 5.51803 19.213 6.18198 19.5567 6.94339C19.9004 7.70481 20.0487 8.54002 19.9864 9.37307C19.9241 10.2061 19.6534 11.0101 19.2003 11.7119C18.9736 12.063 18.7044 12.383 18.4004 12.6651C21.071 13.7625 23.0001 16.1202 23.0001 19C23.0001 19.5523 22.5523 20 22.0001 20H16.0001C15.4478 20 15.0001 19.5523 15.0001 19C15.0001 18.4477 15.4478 18 16.0001 18H20.8751C20.3275 15.8027 18.0161 14 15.0001 14C14.0791 14 12.6172 13.698 11.4952 12.6699L11.2754 12.4551L11.209 12.377C10.8984 11.9765 10.9357 11.3981 11.3106 11.041C11.6856 10.6839 12.2656 10.6748 12.6504 11.0049L12.7247 11.0752L12.8497 11.1983C13.4966 11.7872 14.4078 12 15.0001 12L15.1876 11.9942C15.6237 11.9668 16.0495 11.8445 16.4346 11.6348C16.8749 11.395 17.2486 11.0481 17.5206 10.627C17.7923 10.206 17.9539 9.72335 17.9913 9.22366C18.0286 8.72383 17.9406 8.2225 17.7344 7.76565C17.5282 7.30876 17.2103 6.91104 16.8106 6.60843C16.411 6.30585 15.942 6.10784 15.4463 6.03323C14.9507 5.95863 14.4437 6.01012 13.9727 6.18167C13.5019 6.35325 13.0815 6.63986 12.7501 7.01565L11.2501 5.69241C11.8027 5.06586 12.5041 4.58771 13.2891 4.30179ZM12.7501 7.01565C12.3847 7.4298 11.7531 7.46887 11.3389 7.10354C10.9247 6.73821 10.8847 6.10659 11.2501 5.69241L12.7501 7.01565Z" fill="currentColor"/>
</svg>
