<svg width="24" height="24" viewBox="0 0 24 24" fill="currentColor" xmlns="http://www.w3.org/2000/svg">
<path d="M12 9C12 7.34315 10.6569 6 9 6C7.34315 6 6 7.34315 6 9C6 10.6569 7.34315 12 9 12C10.6569 12 12 10.6569 12 9ZM14 9C14 11.7614 11.7614 14 9 14C6.23858 14 4 11.7614 4 9C4 6.23858 6.23858 4 9 4C11.7614 4 14 6.23858 14 9Z" fill="currentColor"/>
<path d="M15 19C15 16.3774 12.4639 14 9 14C5.53608 14 3 16.3774 3 19C3 19.5523 2.55228 20 2 20C1.44772 20 1 19.5523 1 19C1 14.9946 4.73192 12 9 12C13.2681 12 17 14.9946 17 19C17 19.5523 16.5523 20 16 20C15.4477 20 15 19.5523 15 19ZM13.2891 4.30179C14.074 4.01599 14.9181 3.93136 15.7441 4.05569C16.5703 4.18006 17.3525 4.50937 18.0186 5.0137C18.6845 5.51803 19.2129 6.18198 19.5566 6.94339C19.9003 7.70481 20.0486 8.54002 19.9863 9.37307C19.924 10.2061 19.6533 11.0101 19.2002 11.7119C18.747 12.4137 18.1252 12.991 17.3916 13.3907C16.6579 13.7903 15.8355 14 15 14C14.4477 14 14 13.5523 14 13C14 12.4478 14.4477 12.0001 15 12C15.5012 12 15.9944 11.8745 16.4346 11.6348C16.8748 11.395 17.2486 11.0481 17.5205 10.627C17.7922 10.206 17.9538 9.72335 17.9912 9.22366C18.0286 8.72383 17.9406 8.2225 17.7344 7.76565C17.5281 7.30876 17.2102 6.91104 16.8105 6.60843C16.4109 6.30585 15.942 6.10784 15.4463 6.03323C14.9506 5.95863 14.4437 6.01012 13.9727 6.18167C13.5019 6.35325 13.0815 6.63986 12.75 7.01565L11.25 5.69241C11.8027 5.06586 12.504 4.58771 13.2891 4.30179ZM12.75 7.01565C12.3847 7.4298 11.753 7.46887 11.3389 7.10354C10.9247 6.73821 10.8847 6.10659 11.25 5.69241L12.75 7.01565Z" fill="currentColor"/>
<path d="M21 19.0003C21 16.3777 18.4639 14.0003 15 14.0003C14.0791 14.0003 12.6171 13.6982 11.4951 12.6703L11.2754 12.4544L11.209 12.3773C10.8982 11.9768 10.9355 11.3975 11.3105 11.0404C11.6857 10.6835 12.2657 10.6751 12.6504 11.0052L12.7246 11.0755L12.8496 11.1986C13.4965 11.7874 14.4078 12.0003 15 12.0003C19.2681 12.0003 23 14.995 23 19.0003C22.9998 19.5525 22.5522 20.0003 22 20.0003C21.4478 20.0003 21.0002 19.5525 21 19.0003Z" fill="currentColor"/>
</svg>
