<svg width="24" height="24" viewBox="0 0 24 24" fill="currentColor" xmlns="http://www.w3.org/2000/svg">
<path d="M12 13C14.7614 13 17 10.7614 17 8C17 5.23858 14.7614 3 12 3C9.23858 3 7 5.23858 7 8C7 10.7614 9.23858 13 12 13Z" fill="currentColor"/>
<path d="M16 8C16 5.79086 14.2091 4 12 4C9.79086 4 8 5.79086 8 8C8 10.2091 9.79086 12 12 12C14.2091 12 16 10.2091 16 8ZM18 8C18 11.3137 15.3137 14 12 14C8.68629 14 6 11.3137 6 8C6 4.68629 8.68629 2 12 2C15.3137 2 18 4.68629 18 8Z" fill="currentColor"/>
<path d="M19 21C19 19.1435 18.2629 17.3626 16.9502 16.0498C15.7194 14.819 14.077 14.0945 12.3467 14.0088L12 14C10.1435 14 8.36256 14.7371 7.0498 16.0498C5.73705 17.3626 5 19.1435 5 21C5 21.5523 4.55228 22 4 22C3.44772 22 3 21.5523 3 21C3 18.6131 3.94791 16.3236 5.63574 14.6357C7.32357 12.9479 9.61305 12 12 12C14.3869 12 16.6764 12.9479 18.3643 14.6357C20.0521 16.3236 21 18.6131 21 21C21 21.5523 20.5523 22 20 22C19.4477 22 19 21.5523 19 21Z" fill="currentColor"/>
<path d="M12 13C9.87827 13 7.84344 13.8429 6.34315 15.3431C4.84285 16.8434 4 18.8783 4 21H20C20 18.8783 19.1571 16.8434 17.6569 15.3431C16.1566 13.8429 14.1217 13 12 13Z" fill="currentColor"/>
<path d="M12 12C14.3869 12 16.6764 12.9479 18.3643 14.6357C20.0521 16.3236 21 18.6131 21 21C21 21.2652 20.8946 21.5195 20.707 21.707C20.5195 21.8946 20.2652 22 20 22H4C3.73478 22 3.48051 21.8946 3.29297 21.707C3.10543 21.5195 3 21.2652 3 21C3 18.6131 3.94791 16.3236 5.63574 14.6357C7.32357 12.9479 9.61305 12 12 12ZM12 14C10.1435 14 8.36256 14.7371 7.0498 16.0498C5.97512 17.1245 5.28786 18.5133 5.07324 20H18.9268C18.7121 18.5133 18.0249 17.1245 16.9502 16.0498C15.6374 14.7371 13.8565 14 12 14Z" fill="currentColor"/>
</svg>
